<?xml version="1.0" encoding="UTF-8" standalone="no"?>
<!DOCTYPE svg PUBLIC "-//W3C//DTD SVG 1.1//EN"
 "http://www.w3.org/Graphics/SVG/1.1/DTD/svg11.dtd">
<!-- Generated by graphviz version 10.0.1 (20240210.2158)
 -->
<!-- Pages: 1 -->
<svg width="77pt" height="171pt"
 viewBox="0.00 0.00 77.25 171.02" xmlns="http://www.w3.org/2000/svg" xmlns:xlink="http://www.w3.org/1999/xlink">
<g id="graph0" class="graph" transform="scale(1 1) rotate(0) translate(4 167.02)">
<polygon fill="white" stroke="none" points="-4,4 -4,-167.02 73.25,-167.02 73.25,4 -4,4"/>
<!-- x1 -->
<g id="node1" class="node">
<title>x1</title>
<polygon fill="lightgray" stroke="black" points="24.25,-163.02 0,-163.02 0,-143.77 24.25,-143.77 24.25,-163.02"/>
<text text-anchor="middle" x="12.12" y="-150.47" font-family="Times New Roman,serif" font-size="9.00">x1</text>
</g>
<!-- y -->
<g id="node3" class="node">
<title>y</title>
<ellipse fill="lightblue" stroke="black" cx="35.12" cy="-15.03" rx="15.03" ry="15.03"/>
<text text-anchor="middle" x="35.12" y="-12.1" font-family="Times New Roman,serif" font-size="9.00">y</text>
</g>
<!-- x1&#45;&gt;y -->
<g id="edge5" class="edge">
<title>x1&#45;&gt;y</title>
<path fill="none" stroke="red" stroke-width="0.29" d="M9.38,-143.38C4.97,-127.45 -2.46,-93.45 5.12,-66.05 8.13,-55.19 14.2,-44.31 20.09,-35.49"/>
<polygon fill="red" stroke="red" stroke-width="0.29" points="22.84,-37.66 25.79,-27.48 17.14,-33.6 22.84,-37.66"/>
</g>
<!-- 314 -->
<g id="node4" class="node">
<title>314</title>
<ellipse fill="white" stroke="black" cx="35.12" cy="-86.91" rx="20.86" ry="20.86"/>
<text text-anchor="middle" x="35.12" y="-83.99" font-family="Times New Roman,serif" font-size="9.00">314</text>
</g>
<!-- x1&#45;&gt;314 -->
<g id="edge1" class="edge">
<title>x1&#45;&gt;314</title>
<path fill="none" stroke="green" stroke-width="0.37" d="M15.32,-143.43C17.8,-136.5 21.37,-126.48 24.8,-116.87"/>
<polygon fill="green" stroke="green" stroke-width="0.37" points="28.02,-118.26 28.08,-107.66 21.42,-115.91 28.02,-118.26"/>
</g>
<!-- x2 -->
<g id="node2" class="node">
<title>x2</title>
<polygon fill="lightgray" stroke="black" points="69.25,-163.02 45,-163.02 45,-143.77 69.25,-143.77 69.25,-163.02"/>
<text text-anchor="middle" x="57.12" y="-150.47" font-family="Times New Roman,serif" font-size="9.00">x2</text>
</g>
<!-- x2&#45;&gt;y -->
<g id="edge4" class="edge">
<title>x2&#45;&gt;y</title>
<path fill="none" stroke="green" stroke-width="0.39" d="M60.04,-143.38C64.74,-127.47 72.72,-93.47 65.12,-66.05 62.12,-55.19 56.05,-44.31 50.16,-35.49"/>
<polygon fill="green" stroke="green" stroke-width="0.39" points="53.2,-33.73 44.56,-27.61 47.5,-37.79 53.2,-33.73"/>
</g>
<!-- x2&#45;&gt;314 -->
<g id="edge3" class="edge">
<title>x2&#45;&gt;314</title>
<path fill="none" stroke="red" stroke-width="0.88" d="M54.07,-143.43C51.77,-136.71 48.5,-127.11 45.31,-117.78"/>
<polygon fill="red" stroke="red" stroke-width="0.88" points="48.65,-116.73 42.11,-108.39 42.03,-118.99 48.65,-116.73"/>
</g>
<!-- 314&#45;&gt;y -->
<g id="edge2" class="edge">
<title>314&#45;&gt;y</title>
<path fill="none" stroke="green" stroke-width="0.54" d="M35.12,-65.7C35.12,-58.03 35.12,-49.19 35.12,-41.13"/>
<polygon fill="green" stroke="green" stroke-width="0.54" points="38.63,-41.24 35.13,-31.24 31.63,-41.24 38.63,-41.24"/>
</g>
</g>
</svg>
