<?xml version="1.0" encoding="UTF-8" standalone="no"?>
<!DOCTYPE svg PUBLIC "-//W3C//DTD SVG 1.1//EN"
 "http://www.w3.org/Graphics/SVG/1.1/DTD/svg11.dtd">
<!-- Generated by graphviz version 10.0.1 (20240210.2158)
 -->
<!-- Pages: 1 -->
<svg width="172pt" height="306pt"
 viewBox="0.00 0.00 172.04 306.02" xmlns="http://www.w3.org/2000/svg" xmlns:xlink="http://www.w3.org/1999/xlink">
<g id="graph0" class="graph" transform="scale(1 1) rotate(0) translate(4 302.02)">
<polygon fill="white" stroke="none" points="-4,4 -4,-302.02 168.04,-302.02 168.04,4 -4,4"/>
<!-- A -->
<g id="node1" class="node">
<title>A</title>
<polygon fill="lightgray" stroke="black" points="59.42,-298.02 36.67,-298.02 36.67,-278.77 59.42,-278.77 59.42,-298.02"/>
<text text-anchor="middle" x="48.04" y="-285.47" font-family="Times New Roman,serif" font-size="9.00">A</text>
</g>
<!-- 2193 -->
<g id="node4" class="node">
<title>2193</title>
<ellipse fill="white" stroke="black" cx="100.04" cy="-218.72" rx="24.04" ry="24.04"/>
<text text-anchor="middle" x="100.04" y="-215.8" font-family="Times New Roman,serif" font-size="9.00">2193</text>
</g>
<!-- A&#45;&gt;2193 -->
<g id="edge3" class="edge">
<title>A&#45;&gt;2193</title>
<path fill="none" stroke="green" stroke-width="0.65" d="M54.84,-278.55C61.07,-270.44 70.62,-258.01 79.35,-246.66"/>
<polygon fill="green" stroke="green" stroke-width="0.65" points="81.87,-249.12 85.18,-239.06 76.32,-244.85 81.87,-249.12"/>
</g>
<!-- 269 -->
<g id="node5" class="node">
<title>269</title>
<ellipse fill="white" stroke="black" cx="100.04" cy="-134.64" rx="20.86" ry="20.86"/>
<text text-anchor="middle" x="100.04" y="-131.72" font-family="Times New Roman,serif" font-size="9.00">269</text>
</g>
<!-- A&#45;&gt;269 -->
<g id="edge8" class="edge">
<title>A&#45;&gt;269</title>
<path fill="none" stroke="green" stroke-width="0.13" d="M48.95,-278.45C50.86,-261.62 56.05,-224.25 67.04,-194.68 71.3,-183.22 77.56,-171.32 83.48,-161.22"/>
<polygon fill="green" stroke="green" stroke-width="0.13" points="86.45,-163.07 88.65,-152.7 80.47,-159.44 86.45,-163.07"/>
</g>
<!-- 4669 -->
<g id="node6" class="node">
<title>4669</title>
<ellipse fill="white" stroke="black" cx="24.04" cy="-134.64" rx="24.04" ry="24.04"/>
<text text-anchor="middle" x="24.04" y="-131.72" font-family="Times New Roman,serif" font-size="9.00">4669</text>
</g>
<!-- A&#45;&gt;4669 -->
<g id="edge6" class="edge">
<title>A&#45;&gt;4669</title>
<path fill="none" stroke="green" stroke-width="0.6" d="M44.57,-278.31C41.31,-269.39 36.57,-255.34 34.04,-242.77 29.17,-218.55 26.66,-190.77 25.38,-169.57"/>
<polygon fill="green" stroke="green" stroke-width="0.6" points="28.88,-169.54 24.85,-159.74 21.89,-169.92 28.88,-169.54"/>
</g>
<!-- B -->
<g id="node2" class="node">
<title>B</title>
<polygon fill="lightgray" stroke="black" points="164.04,-228.35 142.04,-228.35 142.04,-209.1 164.04,-209.1 164.04,-228.35"/>
<text text-anchor="middle" x="153.04" y="-215.8" font-family="Times New Roman,serif" font-size="9.00">B</text>
</g>
<!-- A XOR B -->
<g id="node3" class="node">
<title>A XOR B</title>
<ellipse fill="lightblue" stroke="black" cx="100.04" cy="-37.3" rx="37.3" ry="37.3"/>
<text text-anchor="middle" x="100.04" y="-34.37" font-family="Times New Roman,serif" font-size="9.00">A XOR B</text>
</g>
<!-- B&#45;&gt;A XOR B -->
<g id="edge5" class="edge">
<title>B&#45;&gt;A XOR B</title>
<path fill="none" stroke="green" stroke-width="0.31" d="M151.67,-208.69C148.73,-190.08 141.15,-146.19 130.04,-110.6 127.04,-100.97 123.25,-90.85 119.4,-81.33"/>
<polygon fill="green" stroke="green" stroke-width="0.31" points="122.63,-79.99 115.56,-72.11 116.17,-82.68 122.63,-79.99"/>
</g>
<!-- B&#45;&gt;269 -->
<g id="edge1" class="edge">
<title>B&#45;&gt;269</title>
<path fill="none" stroke="green" stroke-width="0.69" d="M147.17,-208.63C139.91,-197.39 127.26,-177.8 116.89,-161.74"/>
<polygon fill="green" stroke="green" stroke-width="0.69" points="120.04,-160.16 111.68,-153.66 114.16,-163.96 120.04,-160.16"/>
</g>
<!-- 2193&#45;&gt;269 -->
<g id="edge4" class="edge">
<title>2193&#45;&gt;269</title>
<path fill="none" stroke="green" stroke-width="0.33" d="M100.04,-194.42C100.04,-185.7 100.04,-175.66 100.04,-166.37"/>
<polygon fill="green" stroke="green" stroke-width="0.33" points="103.54,-166.43 100.04,-156.43 96.54,-166.43 103.54,-166.43"/>
</g>
<!-- 269&#45;&gt;A XOR B -->
<g id="edge2" class="edge">
<title>269&#45;&gt;A XOR B</title>
<path fill="none" stroke="red" stroke-width="0.91" d="M100.04,-113.42C100.04,-105.41 100.04,-95.82 100.04,-86.22"/>
<polygon fill="red" stroke="red" stroke-width="0.91" points="103.54,-86.42 100.04,-76.42 96.54,-86.42 103.54,-86.42"/>
</g>
<!-- 4669&#45;&gt;A XOR B -->
<g id="edge7" class="edge">
<title>4669&#45;&gt;A XOR B</title>
<path fill="none" stroke="green" stroke-width="0.25" d="M38.7,-115.26C47.78,-103.86 59.78,-88.81 70.75,-75.05"/>
<polygon fill="green" stroke="green" stroke-width="0.25" points="73.33,-77.43 76.83,-67.42 67.86,-73.06 73.33,-77.43"/>
</g>
</g>
</svg>
