<?xml version="1.0" encoding="UTF-8" standalone="no"?>
<!DOCTYPE svg PUBLIC "-//W3C//DTD SVG 1.1//EN"
 "http://www.w3.org/Graphics/SVG/1.1/DTD/svg11.dtd">
<!-- Generated by graphviz version 10.0.1 (20240210.2158)
 -->
<!-- Pages: 1 -->
<svg width="106pt" height="255pt"
 viewBox="0.00 0.00 106.29 255.10" xmlns="http://www.w3.org/2000/svg" xmlns:xlink="http://www.w3.org/1999/xlink">
<g id="graph0" class="graph" transform="scale(1 1) rotate(0) translate(4 251.1)">
<polygon fill="white" stroke="none" points="-4,4 -4,-251.1 102.29,-251.1 102.29,4 -4,4"/>
<!-- x1 -->
<g id="node1" class="node">
<title>x1</title>
<polygon fill="lightgray" stroke="black" points="24.25,-247.1 0,-247.1 0,-227.85 24.25,-227.85 24.25,-247.1"/>
<text text-anchor="middle" x="12.12" y="-234.55" font-family="Times New Roman,serif" font-size="9.00">x1</text>
</g>
<!-- y -->
<g id="node3" class="node">
<title>y</title>
<ellipse fill="lightblue" stroke="black" cx="30.12" cy="-15.03" rx="15.03" ry="15.03"/>
<text text-anchor="middle" x="30.12" y="-12.1" font-family="Times New Roman,serif" font-size="9.00">y</text>
</g>
<!-- x1&#45;&gt;y -->
<g id="edge1" class="edge">
<title>x1&#45;&gt;y</title>
<path fill="none" stroke="red" stroke-width="0.38" d="M10.32,-227.64C8.59,-218.67 6.1,-204.36 5.12,-191.85 0.84,-136.93 14.72,-73.03 23.49,-39.43"/>
<polygon fill="red" stroke="red" stroke-width="0.38" points="26.75,-40.77 25.97,-30.2 19.99,-38.95 26.75,-40.77"/>
</g>
<!-- 155 -->
<g id="node4" class="node">
<title>155</title>
<ellipse fill="white" stroke="black" cx="35.12" cy="-170.99" rx="20.86" ry="20.86"/>
<text text-anchor="middle" x="35.12" y="-168.07" font-family="Times New Roman,serif" font-size="9.00">155</text>
</g>
<!-- x1&#45;&gt;155 -->
<g id="edge4" class="edge">
<title>x1&#45;&gt;155</title>
<path fill="none" stroke="green" stroke-width="0.58" d="M15.32,-227.51C17.77,-220.65 21.29,-210.78 24.69,-201.25"/>
<polygon fill="green" stroke="green" stroke-width="0.58" points="27.91,-202.63 27.98,-192.04 21.32,-200.28 27.91,-202.63"/>
</g>
<!-- x2 -->
<g id="node2" class="node">
<title>x2</title>
<polygon fill="lightgray" stroke="black" points="69.25,-247.1 45,-247.1 45,-227.85 69.25,-227.85 69.25,-247.1"/>
<text text-anchor="middle" x="57.12" y="-234.55" font-family="Times New Roman,serif" font-size="9.00">x2</text>
</g>
<!-- x2&#45;&gt;y -->
<g id="edge7" class="edge">
<title>x2&#45;&gt;y</title>
<path fill="none" stroke="red" stroke-width="0.45" d="M62.43,-227.51C77.14,-201.35 115.7,-123.42 89.12,-66.05 81.59,-49.77 65.85,-36.86 52.53,-28.24"/>
<polygon fill="red" stroke="red" stroke-width="0.45" points="54.35,-25.25 43.98,-23.08 50.73,-31.24 54.35,-25.25"/>
</g>
<!-- x2&#45;&gt;155 -->
<g id="edge2" class="edge">
<title>x2&#45;&gt;155</title>
<path fill="none" stroke="green" stroke-width="0.74" d="M54.07,-227.51C51.75,-220.72 48.43,-210.99 45.21,-201.56"/>
<polygon fill="green" stroke="green" stroke-width="0.74" points="48.58,-200.6 42.04,-192.27 41.96,-202.87 48.58,-200.6"/>
</g>
<!-- 155&#45;&gt;y -->
<g id="edge3" class="edge">
<title>155&#45;&gt;y</title>
<path fill="none" stroke="green" stroke-width="0.71" stroke-dasharray="1,5" d="M29.88,-150.51C27.28,-139.85 24.42,-126.37 23.12,-114.14 20.87,-92.88 21.64,-87.37 23.12,-66.05 23.7,-57.82 24.79,-48.89 25.95,-40.88"/>
<polygon fill="green" stroke="green" stroke-width="0.71" points="29.4,-41.47 27.48,-31.05 22.49,-40.4 29.4,-41.47"/>
</g>
<!-- 1133 -->
<g id="node5" class="node">
<title>1133</title>
<ellipse fill="white" stroke="black" cx="56.12" cy="-90.09" rx="24.04" ry="24.04"/>
<text text-anchor="middle" x="56.12" y="-87.17" font-family="Times New Roman,serif" font-size="9.00">1133</text>
</g>
<!-- 155&#45;&gt;1133 -->
<g id="edge5" class="edge">
<title>155&#45;&gt;1133</title>
<path fill="none" stroke="green" stroke-width="0.52" d="M40.32,-150.49C42.45,-142.49 44.97,-133 47.37,-123.98"/>
<polygon fill="green" stroke="green" stroke-width="0.52" points="50.71,-125.05 49.9,-114.48 43.95,-123.25 50.71,-125.05"/>
</g>
<!-- 1133&#45;&gt;y -->
<g id="edge6" class="edge">
<title>1133&#45;&gt;y</title>
<path fill="none" stroke="green" stroke-width="1.22" d="M48.32,-67.17C45.32,-58.73 41.88,-49.05 38.8,-40.39"/>
<polygon fill="green" stroke="green" stroke-width="1.22" points="42.17,-39.42 35.52,-31.18 35.57,-41.77 42.17,-39.42"/>
</g>
</g>
</svg>
