<?xml version="1.0" encoding="UTF-8" standalone="no"?>
<!DOCTYPE svg PUBLIC "-//W3C//DTD SVG 1.1//EN"
 "http://www.w3.org/Graphics/SVG/1.1/DTD/svg11.dtd">
<!-- Generated by graphviz version 10.0.1 (20240210.2158)
 -->
<!-- Pages: 1 -->
<svg width="74pt" height="93pt"
 viewBox="0.00 0.00 74.25 93.30" xmlns="http://www.w3.org/2000/svg" xmlns:xlink="http://www.w3.org/1999/xlink">
<g id="graph0" class="graph" transform="scale(1 1) rotate(0) translate(4 89.3)">
<polygon fill="white" stroke="none" points="-4,4 -4,-89.3 70.25,-89.3 70.25,4 -4,4"/>
<!-- x1 -->
<g id="node1" class="node">
<title>x1</title>
<polygon fill="lightgray" stroke="black" points="24.25,-85.3 0,-85.3 0,-66.05 24.25,-66.05 24.25,-85.3"/>
<text text-anchor="middle" x="12.12" y="-72.75" font-family="Times New Roman,serif" font-size="9.00">x1</text>
</g>
<!-- y -->
<g id="node3" class="node">
<title>y</title>
<ellipse fill="lightblue" stroke="black" cx="33.12" cy="-15.03" rx="15.03" ry="15.03"/>
<text text-anchor="middle" x="33.12" y="-12.1" font-family="Times New Roman,serif" font-size="9.00">y</text>
</g>
<!-- x1&#45;&gt;y -->
<g id="edge1" class="edge">
<title>x1&#45;&gt;y</title>
<path fill="none" stroke="green" stroke-width="0.33" d="M15.22,-66.02C17.74,-59 21.4,-48.77 24.76,-39.38"/>
<polygon fill="green" stroke="green" stroke-width="0.33" points="27.98,-40.79 28.05,-30.2 21.38,-38.43 27.98,-40.79"/>
</g>
<!-- x2 -->
<g id="node2" class="node">
<title>x2</title>
<polygon fill="lightgray" stroke="black" points="66.25,-85.3 42,-85.3 42,-66.05 66.25,-66.05 66.25,-85.3"/>
<text text-anchor="middle" x="54.12" y="-72.75" font-family="Times New Roman,serif" font-size="9.00">x2</text>
</g>
<!-- x2&#45;&gt;y -->
<g id="edge2" class="edge">
<title>x2&#45;&gt;y</title>
<path fill="none" stroke="green" stroke-width="0.46" d="M51.03,-66.02C48.54,-59.08 44.93,-48.98 41.6,-39.68"/>
<polygon fill="green" stroke="green" stroke-width="0.46" points="44.93,-38.61 38.26,-30.38 38.34,-40.97 44.93,-38.61"/>
</g>
</g>
</svg>
