<?xml version="1.0" encoding="utf-8" standalone="no"?>
<!DOCTYPE svg PUBLIC "-//W3C//DTD SVG 1.1//EN"
  "http://www.w3.org/Graphics/SVG/1.1/DTD/svg11.dtd">
<svg xmlns:xlink="http://www.w3.org/1999/xlink" width="460.8pt" height="345.6pt" viewBox="0 0 460.8 345.6" xmlns="http://www.w3.org/2000/svg" version="1.1">
 <metadata>
  <rdf:RDF xmlns:dc="http://purl.org/dc/elements/1.1/" xmlns:cc="http://creativecommons.org/ns#" xmlns:rdf="http://www.w3.org/1999/02/22-rdf-syntax-ns#">
   <cc:Work>
    <dc:type rdf:resource="http://purl.org/dc/dcmitype/StillImage"/>
    <dc:date>2024-04-16T23:24:44.249360</dc:date>
    <dc:format>image/svg+xml</dc:format>
    <dc:creator>
     <cc:Agent>
      <dc:title>Matplotlib v3.8.4, https://matplotlib.org/</dc:title>
     </cc:Agent>
    </dc:creator>
   </cc:Work>
  </rdf:RDF>
 </metadata>
 <defs>
  <style type="text/css">*{stroke-linejoin: round; stroke-linecap: butt}</style>
 </defs>
 <g id="figure_1">
  <g id="patch_1">
   <path d="M 0 345.6 
L 460.8 345.6 
L 460.8 0 
L 0 0 
z
" style="fill: #ffffff"/>
  </g>
  <g id="axes_1">
   <g id="patch_2">
    <path d="M 57.6 307.584 
L 414.72 307.584 
L 414.72 41.472 
L 57.6 41.472 
z
" style="fill: #ffffff"/>
   </g>
   <g id="PolyCollection_1">
    <path d="M 73.832727 55.822411 
L 73.832727 307.584 
L 78.905455 307.584 
L 83.978182 307.584 
L 89.050909 307.584 
L 94.123636 307.584 
L 99.196364 307.584 
L 104.269091 307.584 
L 109.341818 307.584 
L 114.414545 307.584 
L 119.487273 307.584 
L 124.56 307.584 
L 129.632727 307.584 
L 134.705455 307.584 
L 139.778182 307.584 
L 144.850909 307.584 
L 149.923636 307.584 
L 154.996364 307.584 
L 160.069091 307.584 
L 165.141818 307.584 
L 170.214545 307.584 
L 175.287273 307.584 
L 180.36 307.584 
L 185.432727 307.584 
L 190.505455 307.584 
L 195.578182 307.584 
L 200.650909 307.584 
L 205.723636 307.584 
L 210.796364 307.584 
L 215.869091 307.584 
L 220.941818 307.584 
L 226.014545 307.584 
L 231.087273 307.584 
L 236.16 307.584 
L 241.232727 307.584 
L 246.305455 307.584 
L 251.378182 307.584 
L 256.450909 307.584 
L 261.523636 307.584 
L 266.596364 307.584 
L 271.669091 307.584 
L 276.741818 307.584 
L 281.814545 307.584 
L 286.887273 307.584 
L 291.96 307.584 
L 297.032727 307.584 
L 302.105455 307.584 
L 307.178182 307.584 
L 312.250909 307.584 
L 317.323636 307.584 
L 322.396364 307.584 
L 327.469091 307.584 
L 332.541818 307.584 
L 337.614545 307.584 
L 342.687273 307.584 
L 347.76 307.584 
L 352.832727 307.584 
L 357.905455 307.584 
L 362.978182 307.584 
L 368.050909 307.584 
L 373.123636 307.584 
L 378.196364 307.584 
L 383.269091 307.584 
L 388.341818 307.584 
L 393.414545 307.584 
L 398.487273 307.584 
L 398.487273 307.584 
L 398.487273 307.584 
L 393.414545 307.584 
L 388.341818 307.584 
L 383.269091 307.584 
L 378.196364 307.584 
L 373.123636 307.584 
L 368.050909 307.584 
L 362.978182 307.584 
L 357.905455 307.584 
L 352.832727 307.584 
L 347.76 307.584 
L 342.687273 307.584 
L 337.614545 307.584 
L 332.541818 307.584 
L 327.469091 307.584 
L 322.396364 307.584 
L 317.323636 307.584 
L 312.250909 307.584 
L 307.178182 307.584 
L 302.105455 307.584 
L 297.032727 307.584 
L 291.96 307.584 
L 286.887273 307.584 
L 281.814545 307.584 
L 276.741818 307.584 
L 271.669091 307.584 
L 266.596364 307.584 
L 261.523636 307.584 
L 256.450909 307.584 
L 251.378182 307.584 
L 246.305455 307.584 
L 241.232727 307.584 
L 236.16 307.584 
L 231.087273 307.584 
L 226.014545 307.584 
L 220.941818 307.584 
L 215.869091 307.584 
L 210.796364 307.584 
L 205.723636 262.266914 
L 200.650909 258.910093 
L 195.578182 248.839629 
L 190.505455 265.623735 
L 185.432727 253.874861 
L 180.36 267.302146 
L 175.287273 227.020291 
L 170.214545 221.98506 
L 165.141818 158.205457 
L 160.069091 159.883868 
L 154.996364 131.350887 
L 149.923636 126.315656 
L 144.850909 144.778172 
L 139.778182 156.527046 
L 134.705455 193.452079 
L 129.632727 161.562278 
L 124.56 174.989563 
L 119.487273 133.029298 
L 114.414545 141.421351 
L 109.341818 151.491815 
L 104.269091 126.315656 
L 99.196364 124.637245 
L 94.123636 59.179232 
L 89.050909 55.822411 
L 83.978182 55.822411 
L 78.905455 55.822411 
L 73.832727 55.822411 
z
" clip-path="url(#p60763645d1)" style="fill: #1f77b4"/>
   </g>
   <g id="PolyCollection_2">
    <path d="M 73.832727 55.822411 
L 73.832727 55.822411 
L 78.905455 55.822411 
L 83.978182 55.822411 
L 89.050909 55.822411 
L 94.123636 59.179232 
L 99.196364 124.637245 
L 104.269091 126.315656 
L 109.341818 151.491815 
L 114.414545 141.421351 
L 119.487273 133.029298 
L 124.56 174.989563 
L 129.632727 161.562278 
L 134.705455 193.452079 
L 139.778182 156.527046 
L 144.850909 144.778172 
L 149.923636 126.315656 
L 154.996364 131.350887 
L 160.069091 159.883868 
L 165.141818 158.205457 
L 170.214545 221.98506 
L 175.287273 227.020291 
L 180.36 267.302146 
L 185.432727 253.874861 
L 190.505455 265.623735 
L 195.578182 248.839629 
L 200.650909 258.910093 
L 205.723636 262.266914 
L 210.796364 307.584 
L 215.869091 307.584 
L 220.941818 307.584 
L 226.014545 307.584 
L 231.087273 307.584 
L 236.16 307.584 
L 241.232727 307.584 
L 246.305455 307.584 
L 251.378182 307.584 
L 256.450909 307.584 
L 261.523636 307.584 
L 266.596364 307.584 
L 271.669091 307.584 
L 276.741818 307.584 
L 281.814545 307.584 
L 286.887273 307.584 
L 291.96 307.584 
L 297.032727 307.584 
L 302.105455 307.584 
L 307.178182 307.584 
L 312.250909 307.584 
L 317.323636 307.584 
L 322.396364 307.584 
L 327.469091 307.584 
L 332.541818 307.584 
L 337.614545 307.584 
L 342.687273 307.584 
L 347.76 307.584 
L 352.832727 307.584 
L 357.905455 307.584 
L 362.978182 307.584 
L 368.050909 307.584 
L 373.123636 307.584 
L 378.196364 307.584 
L 383.269091 307.584 
L 388.341818 307.584 
L 393.414545 307.584 
L 398.487273 307.584 
L 398.487273 255.553272 
L 398.487273 255.553272 
L 393.414545 258.910093 
L 388.341818 253.874861 
L 383.269091 258.910093 
L 378.196364 268.980556 
L 373.123636 260.588503 
L 368.050909 258.910093 
L 362.978182 262.266914 
L 357.905455 265.623735 
L 352.832727 272.337377 
L 347.76 265.623735 
L 342.687273 260.588503 
L 337.614545 255.553272 
L 332.541818 260.588503 
L 327.469091 257.231682 
L 322.396364 265.623735 
L 317.323636 250.51804 
L 312.250909 255.553272 
L 307.178182 260.588503 
L 302.105455 252.19645 
L 297.032727 250.51804 
L 291.96 252.19645 
L 286.887273 263.945325 
L 281.814545 262.266914 
L 276.741818 262.266914 
L 271.669091 263.945325 
L 266.596364 265.623735 
L 261.523636 255.553272 
L 256.450909 257.231682 
L 251.378182 258.910093 
L 246.305455 257.231682 
L 241.232727 255.553272 
L 236.16 248.839629 
L 231.087273 257.231682 
L 226.014545 237.090755 
L 220.941818 237.090755 
L 215.869091 248.839629 
L 210.796364 238.769166 
L 205.723636 206.879364 
L 200.650909 200.165722 
L 195.578182 190.095258 
L 190.505455 215.271417 
L 185.432727 201.844132 
L 180.36 216.949828 
L 175.287273 181.703205 
L 170.214545 171.632742 
L 165.141818 107.853139 
L 160.069091 59.179232 
L 154.996364 55.822411 
L 149.923636 55.822411 
L 144.850909 55.822411 
L 139.778182 55.822411 
L 134.705455 55.822411 
L 129.632727 55.822411 
L 124.56 55.822411 
L 119.487273 55.822411 
L 114.414545 55.822411 
L 109.341818 55.822411 
L 104.269091 55.822411 
L 99.196364 55.822411 
L 94.123636 55.822411 
L 89.050909 55.822411 
L 83.978182 55.822411 
L 78.905455 55.822411 
L 73.832727 55.822411 
z
" clip-path="url(#p60763645d1)" style="fill: #ff7f0e"/>
   </g>
   <g id="PolyCollection_3">
    <path d="M 73.832727 55.822411 
L 73.832727 55.822411 
L 78.905455 55.822411 
L 83.978182 55.822411 
L 89.050909 55.822411 
L 94.123636 55.822411 
L 99.196364 55.822411 
L 104.269091 55.822411 
L 109.341818 55.822411 
L 114.414545 55.822411 
L 119.487273 55.822411 
L 124.56 55.822411 
L 129.632727 55.822411 
L 134.705455 55.822411 
L 139.778182 55.822411 
L 144.850909 55.822411 
L 149.923636 55.822411 
L 154.996364 55.822411 
L 160.069091 59.179232 
L 165.141818 107.853139 
L 170.214545 171.632742 
L 175.287273 181.703205 
L 180.36 216.949828 
L 185.432727 201.844132 
L 190.505455 215.271417 
L 195.578182 190.095258 
L 200.650909 200.165722 
L 205.723636 206.879364 
L 210.796364 238.769166 
L 215.869091 248.839629 
L 220.941818 237.090755 
L 226.014545 237.090755 
L 231.087273 257.231682 
L 236.16 248.839629 
L 241.232727 255.553272 
L 246.305455 257.231682 
L 251.378182 258.910093 
L 256.450909 257.231682 
L 261.523636 255.553272 
L 266.596364 265.623735 
L 271.669091 263.945325 
L 276.741818 262.266914 
L 281.814545 262.266914 
L 286.887273 263.945325 
L 291.96 252.19645 
L 297.032727 250.51804 
L 302.105455 252.19645 
L 307.178182 260.588503 
L 312.250909 255.553272 
L 317.323636 250.51804 
L 322.396364 265.623735 
L 327.469091 257.231682 
L 332.541818 260.588503 
L 337.614545 255.553272 
L 342.687273 260.588503 
L 347.76 265.623735 
L 352.832727 272.337377 
L 357.905455 265.623735 
L 362.978182 262.266914 
L 368.050909 258.910093 
L 373.123636 260.588503 
L 378.196364 268.980556 
L 383.269091 258.910093 
L 388.341818 253.874861 
L 393.414545 258.910093 
L 398.487273 255.553272 
L 398.487273 154.848636 
L 398.487273 154.848636 
L 393.414545 158.205457 
L 388.341818 164.919099 
L 383.269091 161.562278 
L 378.196364 166.59751 
L 373.123636 180.024795 
L 368.050909 178.346384 
L 362.978182 178.346384 
L 357.905455 188.416848 
L 352.832727 201.844132 
L 347.76 153.170225 
L 342.687273 173.311152 
L 337.614545 181.703205 
L 332.541818 168.275921 
L 327.469091 158.205457 
L 322.396364 159.883868 
L 317.323636 151.491815 
L 312.250909 151.491815 
L 307.178182 148.134993 
L 302.105455 149.813404 
L 297.032727 149.813404 
L 291.96 149.813404 
L 286.887273 154.848636 
L 281.814545 164.919099 
L 276.741818 168.275921 
L 271.669091 168.275921 
L 266.596364 154.848636 
L 261.523636 148.134993 
L 256.450909 151.491815 
L 251.378182 151.491815 
L 246.305455 146.456583 
L 241.232727 138.06453 
L 236.16 139.74294 
L 231.087273 156.527046 
L 226.014545 159.883868 
L 220.941818 161.562278 
L 215.869091 129.672477 
L 210.796364 156.527046 
L 205.723636 126.315656 
L 200.650909 114.566781 
L 195.578182 122.958834 
L 190.505455 91.069033 
L 185.432727 86.033801 
L 180.36 91.069033 
L 175.287273 69.249695 
L 170.214545 144.778172 
L 165.141818 102.817907 
L 160.069091 55.822411 
L 154.996364 55.822411 
L 149.923636 55.822411 
L 144.850909 55.822411 
L 139.778182 55.822411 
L 134.705455 55.822411 
L 129.632727 55.822411 
L 124.56 55.822411 
L 119.487273 55.822411 
L 114.414545 55.822411 
L 109.341818 55.822411 
L 104.269091 55.822411 
L 99.196364 55.822411 
L 94.123636 55.822411 
L 89.050909 55.822411 
L 83.978182 55.822411 
L 78.905455 55.822411 
L 73.832727 55.822411 
z
" clip-path="url(#p60763645d1)" style="fill: #2ca02c"/>
   </g>
   <g id="PolyCollection_4">
    <path d="M 73.832727 55.822411 
L 73.832727 55.822411 
L 78.905455 55.822411 
L 83.978182 55.822411 
L 89.050909 55.822411 
L 94.123636 55.822411 
L 99.196364 55.822411 
L 104.269091 55.822411 
L 109.341818 55.822411 
L 114.414545 55.822411 
L 119.487273 55.822411 
L 124.56 55.822411 
L 129.632727 55.822411 
L 134.705455 55.822411 
L 139.778182 55.822411 
L 144.850909 55.822411 
L 149.923636 55.822411 
L 154.996364 55.822411 
L 160.069091 55.822411 
L 165.141818 102.817907 
L 170.214545 144.778172 
L 175.287273 69.249695 
L 180.36 91.069033 
L 185.432727 86.033801 
L 190.505455 91.069033 
L 195.578182 122.958834 
L 200.650909 114.566781 
L 205.723636 126.315656 
L 210.796364 156.527046 
L 215.869091 129.672477 
L 220.941818 161.562278 
L 226.014545 159.883868 
L 231.087273 156.527046 
L 236.16 139.74294 
L 241.232727 138.06453 
L 246.305455 146.456583 
L 251.378182 151.491815 
L 256.450909 151.491815 
L 261.523636 148.134993 
L 266.596364 154.848636 
L 271.669091 168.275921 
L 276.741818 168.275921 
L 281.814545 164.919099 
L 286.887273 154.848636 
L 291.96 149.813404 
L 297.032727 149.813404 
L 302.105455 149.813404 
L 307.178182 148.134993 
L 312.250909 151.491815 
L 317.323636 151.491815 
L 322.396364 159.883868 
L 327.469091 158.205457 
L 332.541818 168.275921 
L 337.614545 181.703205 
L 342.687273 173.311152 
L 347.76 153.170225 
L 352.832727 201.844132 
L 357.905455 188.416848 
L 362.978182 178.346384 
L 368.050909 178.346384 
L 373.123636 180.024795 
L 378.196364 166.59751 
L 383.269091 161.562278 
L 388.341818 164.919099 
L 393.414545 158.205457 
L 398.487273 154.848636 
L 398.487273 96.104265 
L 398.487273 96.104265 
L 393.414545 99.461086 
L 388.341818 104.496318 
L 383.269091 101.139497 
L 378.196364 114.566781 
L 373.123636 107.853139 
L 368.050909 111.20996 
L 362.978182 119.602013 
L 357.905455 114.566781 
L 352.832727 107.853139 
L 347.76 102.817907 
L 342.687273 169.954331 
L 337.614545 139.74294 
L 332.541818 112.888371 
L 327.469091 99.461086 
L 322.396364 102.817907 
L 317.323636 96.104265 
L 312.250909 94.425854 
L 307.178182 99.461086 
L 302.105455 104.496318 
L 297.032727 101.139497 
L 291.96 99.461086 
L 286.887273 101.139497 
L 281.814545 102.817907 
L 276.741818 106.174728 
L 271.669091 112.888371 
L 266.596364 106.174728 
L 261.523636 106.174728 
L 256.450909 104.496318 
L 251.378182 111.20996 
L 246.305455 99.461086 
L 241.232727 101.139497 
L 236.16 96.104265 
L 231.087273 104.496318 
L 226.014545 102.817907 
L 220.941818 121.280424 
L 215.869091 94.425854 
L 210.796364 96.104265 
L 205.723636 80.99857 
L 200.650909 62.536053 
L 195.578182 54.144 
L 190.505455 54.144 
L 185.432727 54.144 
L 180.36 54.144 
L 175.287273 54.144 
L 170.214545 54.144 
L 165.141818 54.144 
L 160.069091 55.822411 
L 154.996364 55.822411 
L 149.923636 55.822411 
L 144.850909 55.822411 
L 139.778182 55.822411 
L 134.705455 55.822411 
L 129.632727 55.822411 
L 124.56 55.822411 
L 119.487273 55.822411 
L 114.414545 55.822411 
L 109.341818 55.822411 
L 104.269091 55.822411 
L 99.196364 55.822411 
L 94.123636 55.822411 
L 89.050909 55.822411 
L 83.978182 55.822411 
L 78.905455 55.822411 
L 73.832727 55.822411 
z
" clip-path="url(#p60763645d1)" style="fill: #d62728"/>
   </g>
   <g id="PolyCollection_5">
    <path d="M 73.832727 55.822411 
L 73.832727 55.822411 
L 78.905455 55.822411 
L 83.978182 55.822411 
L 89.050909 55.822411 
L 94.123636 55.822411 
L 99.196364 55.822411 
L 104.269091 55.822411 
L 109.341818 55.822411 
L 114.414545 55.822411 
L 119.487273 55.822411 
L 124.56 55.822411 
L 129.632727 55.822411 
L 134.705455 55.822411 
L 139.778182 55.822411 
L 144.850909 55.822411 
L 149.923636 55.822411 
L 154.996364 55.822411 
L 160.069091 55.822411 
L 165.141818 54.144 
L 170.214545 54.144 
L 175.287273 54.144 
L 180.36 54.144 
L 185.432727 54.144 
L 190.505455 54.144 
L 195.578182 54.144 
L 200.650909 62.536053 
L 205.723636 80.99857 
L 210.796364 96.104265 
L 215.869091 94.425854 
L 220.941818 121.280424 
L 226.014545 102.817907 
L 231.087273 104.496318 
L 236.16 96.104265 
L 241.232727 101.139497 
L 246.305455 99.461086 
L 251.378182 111.20996 
L 256.450909 104.496318 
L 261.523636 106.174728 
L 266.596364 106.174728 
L 271.669091 112.888371 
L 276.741818 106.174728 
L 281.814545 102.817907 
L 286.887273 101.139497 
L 291.96 99.461086 
L 297.032727 101.139497 
L 302.105455 104.496318 
L 307.178182 99.461086 
L 312.250909 94.425854 
L 317.323636 96.104265 
L 322.396364 102.817907 
L 327.469091 99.461086 
L 332.541818 112.888371 
L 337.614545 139.74294 
L 342.687273 169.954331 
L 347.76 102.817907 
L 352.832727 107.853139 
L 357.905455 114.566781 
L 362.978182 119.602013 
L 368.050909 111.20996 
L 373.123636 107.853139 
L 378.196364 114.566781 
L 383.269091 101.139497 
L 388.341818 104.496318 
L 393.414545 99.461086 
L 398.487273 96.104265 
L 398.487273 96.104265 
L 398.487273 96.104265 
L 393.414545 99.461086 
L 388.341818 104.496318 
L 383.269091 101.139497 
L 378.196364 111.20996 
L 373.123636 70.928106 
L 368.050909 80.99857 
L 362.978182 91.069033 
L 357.905455 70.928106 
L 352.832727 72.606517 
L 347.76 70.928106 
L 342.687273 133.029298 
L 337.614545 99.461086 
L 332.541818 77.641748 
L 327.469091 57.500821 
L 322.396364 55.822411 
L 317.323636 55.822411 
L 312.250909 55.822411 
L 307.178182 55.822411 
L 302.105455 55.822411 
L 297.032727 55.822411 
L 291.96 55.822411 
L 286.887273 55.822411 
L 281.814545 54.144 
L 276.741818 55.822411 
L 271.669091 57.500821 
L 266.596364 55.822411 
L 261.523636 54.144 
L 256.450909 55.822411 
L 251.378182 55.822411 
L 246.305455 55.822411 
L 241.232727 54.144 
L 236.16 54.144 
L 231.087273 55.822411 
L 226.014545 54.144 
L 220.941818 57.500821 
L 215.869091 57.500821 
L 210.796364 55.822411 
L 205.723636 54.144 
L 200.650909 54.144 
L 195.578182 54.144 
L 190.505455 54.144 
L 185.432727 54.144 
L 180.36 54.144 
L 175.287273 54.144 
L 170.214545 54.144 
L 165.141818 54.144 
L 160.069091 55.822411 
L 154.996364 55.822411 
L 149.923636 55.822411 
L 144.850909 55.822411 
L 139.778182 55.822411 
L 134.705455 55.822411 
L 129.632727 55.822411 
L 124.56 55.822411 
L 119.487273 55.822411 
L 114.414545 55.822411 
L 109.341818 55.822411 
L 104.269091 55.822411 
L 99.196364 55.822411 
L 94.123636 55.822411 
L 89.050909 55.822411 
L 83.978182 55.822411 
L 78.905455 55.822411 
L 73.832727 55.822411 
z
" clip-path="url(#p60763645d1)" style="fill: #9467bd"/>
   </g>
   <g id="PolyCollection_6">
    <path d="M 73.832727 55.822411 
L 73.832727 55.822411 
L 78.905455 55.822411 
L 83.978182 55.822411 
L 89.050909 55.822411 
L 94.123636 55.822411 
L 99.196364 55.822411 
L 104.269091 55.822411 
L 109.341818 55.822411 
L 114.414545 55.822411 
L 119.487273 55.822411 
L 124.56 55.822411 
L 129.632727 55.822411 
L 134.705455 55.822411 
L 139.778182 55.822411 
L 144.850909 55.822411 
L 149.923636 55.822411 
L 154.996364 55.822411 
L 160.069091 55.822411 
L 165.141818 54.144 
L 170.214545 54.144 
L 175.287273 54.144 
L 180.36 54.144 
L 185.432727 54.144 
L 190.505455 54.144 
L 195.578182 54.144 
L 200.650909 54.144 
L 205.723636 54.144 
L 210.796364 55.822411 
L 215.869091 57.500821 
L 220.941818 57.500821 
L 226.014545 54.144 
L 231.087273 55.822411 
L 236.16 54.144 
L 241.232727 54.144 
L 246.305455 55.822411 
L 251.378182 55.822411 
L 256.450909 55.822411 
L 261.523636 54.144 
L 266.596364 55.822411 
L 271.669091 57.500821 
L 276.741818 55.822411 
L 281.814545 54.144 
L 286.887273 55.822411 
L 291.96 55.822411 
L 297.032727 55.822411 
L 302.105455 55.822411 
L 307.178182 55.822411 
L 312.250909 55.822411 
L 317.323636 55.822411 
L 322.396364 55.822411 
L 327.469091 57.500821 
L 332.541818 77.641748 
L 337.614545 99.461086 
L 342.687273 133.029298 
L 347.76 70.928106 
L 352.832727 72.606517 
L 357.905455 70.928106 
L 362.978182 91.069033 
L 368.050909 80.99857 
L 373.123636 70.928106 
L 378.196364 111.20996 
L 383.269091 101.139497 
L 388.341818 104.496318 
L 393.414545 99.461086 
L 398.487273 96.104265 
L 398.487273 55.822411 
L 398.487273 55.822411 
L 393.414545 57.500821 
L 388.341818 57.500821 
L 383.269091 57.500821 
L 378.196364 55.822411 
L 373.123636 55.822411 
L 368.050909 55.822411 
L 362.978182 55.822411 
L 357.905455 57.500821 
L 352.832727 57.500821 
L 347.76 55.822411 
L 342.687273 57.500821 
L 337.614545 57.500821 
L 332.541818 55.822411 
L 327.469091 55.822411 
L 322.396364 55.822411 
L 317.323636 55.822411 
L 312.250909 55.822411 
L 307.178182 55.822411 
L 302.105455 55.822411 
L 297.032727 55.822411 
L 291.96 55.822411 
L 286.887273 55.822411 
L 281.814545 54.144 
L 276.741818 55.822411 
L 271.669091 57.500821 
L 266.596364 55.822411 
L 261.523636 54.144 
L 256.450909 55.822411 
L 251.378182 55.822411 
L 246.305455 55.822411 
L 241.232727 54.144 
L 236.16 54.144 
L 231.087273 55.822411 
L 226.014545 54.144 
L 220.941818 57.500821 
L 215.869091 57.500821 
L 210.796364 55.822411 
L 205.723636 54.144 
L 200.650909 54.144 
L 195.578182 54.144 
L 190.505455 54.144 
L 185.432727 54.144 
L 180.36 54.144 
L 175.287273 54.144 
L 170.214545 54.144 
L 165.141818 54.144 
L 160.069091 55.822411 
L 154.996364 55.822411 
L 149.923636 55.822411 
L 144.850909 55.822411 
L 139.778182 55.822411 
L 134.705455 55.822411 
L 129.632727 55.822411 
L 124.56 55.822411 
L 119.487273 55.822411 
L 114.414545 55.822411 
L 109.341818 55.822411 
L 104.269091 55.822411 
L 99.196364 55.822411 
L 94.123636 55.822411 
L 89.050909 55.822411 
L 83.978182 55.822411 
L 78.905455 55.822411 
L 73.832727 55.822411 
z
" clip-path="url(#p60763645d1)" style="fill: #8c564b"/>
   </g>
   <g id="matplotlib.axis_1">
    <g id="xtick_1">
     <g id="line2d_1">
      <defs>
       <path id="mf47c739156" d="M 0 0 
L 0 3.5 
" style="stroke: #000000; stroke-width: 0.8"/>
      </defs>
      <g>
       <use xlink:href="#mf47c739156" x="73.832727" y="307.584" style="stroke: #000000; stroke-width: 0.8"/>
      </g>
     </g>
     <g id="text_1">
      <!-- 0 -->
      <g transform="translate(70.651477 322.182437) scale(0.1 -0.1)">
       <defs>
        <path id="DejaVuSans-30" d="M 2034 4250 
Q 1547 4250 1301 3770 
Q 1056 3291 1056 2328 
Q 1056 1369 1301 889 
Q 1547 409 2034 409 
Q 2525 409 2770 889 
Q 3016 1369 3016 2328 
Q 3016 3291 2770 3770 
Q 2525 4250 2034 4250 
z
M 2034 4750 
Q 2819 4750 3233 4129 
Q 3647 3509 3647 2328 
Q 3647 1150 3233 529 
Q 2819 -91 2034 -91 
Q 1250 -91 836 529 
Q 422 1150 422 2328 
Q 422 3509 836 4129 
Q 1250 4750 2034 4750 
z
" transform="scale(0.015625)"/>
       </defs>
       <use xlink:href="#DejaVuSans-30"/>
      </g>
     </g>
    </g>
    <g id="xtick_2">
     <g id="line2d_2">
      <g>
       <use xlink:href="#mf47c739156" x="124.56" y="307.584" style="stroke: #000000; stroke-width: 0.8"/>
      </g>
     </g>
     <g id="text_2">
      <!-- 10 -->
      <g transform="translate(118.1975 322.182437) scale(0.1 -0.1)">
       <defs>
        <path id="DejaVuSans-31" d="M 794 531 
L 1825 531 
L 1825 4091 
L 703 3866 
L 703 4441 
L 1819 4666 
L 2450 4666 
L 2450 531 
L 3481 531 
L 3481 0 
L 794 0 
L 794 531 
z
" transform="scale(0.015625)"/>
       </defs>
       <use xlink:href="#DejaVuSans-31"/>
       <use xlink:href="#DejaVuSans-30" x="63.623047"/>
      </g>
     </g>
    </g>
    <g id="xtick_3">
     <g id="line2d_3">
      <g>
       <use xlink:href="#mf47c739156" x="175.287273" y="307.584" style="stroke: #000000; stroke-width: 0.8"/>
      </g>
     </g>
     <g id="text_3">
      <!-- 20 -->
      <g transform="translate(168.924773 322.182437) scale(0.1 -0.1)">
       <defs>
        <path id="DejaVuSans-32" d="M 1228 531 
L 3431 531 
L 3431 0 
L 469 0 
L 469 531 
Q 828 903 1448 1529 
Q 2069 2156 2228 2338 
Q 2531 2678 2651 2914 
Q 2772 3150 2772 3378 
Q 2772 3750 2511 3984 
Q 2250 4219 1831 4219 
Q 1534 4219 1204 4116 
Q 875 4013 500 3803 
L 500 4441 
Q 881 4594 1212 4672 
Q 1544 4750 1819 4750 
Q 2544 4750 2975 4387 
Q 3406 4025 3406 3419 
Q 3406 3131 3298 2873 
Q 3191 2616 2906 2266 
Q 2828 2175 2409 1742 
Q 1991 1309 1228 531 
z
" transform="scale(0.015625)"/>
       </defs>
       <use xlink:href="#DejaVuSans-32"/>
       <use xlink:href="#DejaVuSans-30" x="63.623047"/>
      </g>
     </g>
    </g>
    <g id="xtick_4">
     <g id="line2d_4">
      <g>
       <use xlink:href="#mf47c739156" x="226.014545" y="307.584" style="stroke: #000000; stroke-width: 0.8"/>
      </g>
     </g>
     <g id="text_4">
      <!-- 30 -->
      <g transform="translate(219.652045 322.182437) scale(0.1 -0.1)">
       <defs>
        <path id="DejaVuSans-33" d="M 2597 2516 
Q 3050 2419 3304 2112 
Q 3559 1806 3559 1356 
Q 3559 666 3084 287 
Q 2609 -91 1734 -91 
Q 1441 -91 1130 -33 
Q 819 25 488 141 
L 488 750 
Q 750 597 1062 519 
Q 1375 441 1716 441 
Q 2309 441 2620 675 
Q 2931 909 2931 1356 
Q 2931 1769 2642 2001 
Q 2353 2234 1838 2234 
L 1294 2234 
L 1294 2753 
L 1863 2753 
Q 2328 2753 2575 2939 
Q 2822 3125 2822 3475 
Q 2822 3834 2567 4026 
Q 2313 4219 1838 4219 
Q 1578 4219 1281 4162 
Q 984 4106 628 3988 
L 628 4550 
Q 988 4650 1302 4700 
Q 1616 4750 1894 4750 
Q 2613 4750 3031 4423 
Q 3450 4097 3450 3541 
Q 3450 3153 3228 2886 
Q 3006 2619 2597 2516 
z
" transform="scale(0.015625)"/>
       </defs>
       <use xlink:href="#DejaVuSans-33"/>
       <use xlink:href="#DejaVuSans-30" x="63.623047"/>
      </g>
     </g>
    </g>
    <g id="xtick_5">
     <g id="line2d_5">
      <g>
       <use xlink:href="#mf47c739156" x="276.741818" y="307.584" style="stroke: #000000; stroke-width: 0.8"/>
      </g>
     </g>
     <g id="text_5">
      <!-- 40 -->
      <g transform="translate(270.379318 322.182437) scale(0.1 -0.1)">
       <defs>
        <path id="DejaVuSans-34" d="M 2419 4116 
L 825 1625 
L 2419 1625 
L 2419 4116 
z
M 2253 4666 
L 3047 4666 
L 3047 1625 
L 3713 1625 
L 3713 1100 
L 3047 1100 
L 3047 0 
L 2419 0 
L 2419 1100 
L 313 1100 
L 313 1709 
L 2253 4666 
z
" transform="scale(0.015625)"/>
       </defs>
       <use xlink:href="#DejaVuSans-34"/>
       <use xlink:href="#DejaVuSans-30" x="63.623047"/>
      </g>
     </g>
    </g>
    <g id="xtick_6">
     <g id="line2d_6">
      <g>
       <use xlink:href="#mf47c739156" x="327.469091" y="307.584" style="stroke: #000000; stroke-width: 0.8"/>
      </g>
     </g>
     <g id="text_6">
      <!-- 50 -->
      <g transform="translate(321.106591 322.182437) scale(0.1 -0.1)">
       <defs>
        <path id="DejaVuSans-35" d="M 691 4666 
L 3169 4666 
L 3169 4134 
L 1269 4134 
L 1269 2991 
Q 1406 3038 1543 3061 
Q 1681 3084 1819 3084 
Q 2600 3084 3056 2656 
Q 3513 2228 3513 1497 
Q 3513 744 3044 326 
Q 2575 -91 1722 -91 
Q 1428 -91 1123 -41 
Q 819 9 494 109 
L 494 744 
Q 775 591 1075 516 
Q 1375 441 1709 441 
Q 2250 441 2565 725 
Q 2881 1009 2881 1497 
Q 2881 1984 2565 2268 
Q 2250 2553 1709 2553 
Q 1456 2553 1204 2497 
Q 953 2441 691 2322 
L 691 4666 
z
" transform="scale(0.015625)"/>
       </defs>
       <use xlink:href="#DejaVuSans-35"/>
       <use xlink:href="#DejaVuSans-30" x="63.623047"/>
      </g>
     </g>
    </g>
    <g id="xtick_7">
     <g id="line2d_7">
      <g>
       <use xlink:href="#mf47c739156" x="378.196364" y="307.584" style="stroke: #000000; stroke-width: 0.8"/>
      </g>
     </g>
     <g id="text_7">
      <!-- 60 -->
      <g transform="translate(371.833864 322.182437) scale(0.1 -0.1)">
       <defs>
        <path id="DejaVuSans-36" d="M 2113 2584 
Q 1688 2584 1439 2293 
Q 1191 2003 1191 1497 
Q 1191 994 1439 701 
Q 1688 409 2113 409 
Q 2538 409 2786 701 
Q 3034 994 3034 1497 
Q 3034 2003 2786 2293 
Q 2538 2584 2113 2584 
z
M 3366 4563 
L 3366 3988 
Q 3128 4100 2886 4159 
Q 2644 4219 2406 4219 
Q 1781 4219 1451 3797 
Q 1122 3375 1075 2522 
Q 1259 2794 1537 2939 
Q 1816 3084 2150 3084 
Q 2853 3084 3261 2657 
Q 3669 2231 3669 1497 
Q 3669 778 3244 343 
Q 2819 -91 2113 -91 
Q 1303 -91 875 529 
Q 447 1150 447 2328 
Q 447 3434 972 4092 
Q 1497 4750 2381 4750 
Q 2619 4750 2861 4703 
Q 3103 4656 3366 4563 
z
" transform="scale(0.015625)"/>
       </defs>
       <use xlink:href="#DejaVuSans-36"/>
       <use xlink:href="#DejaVuSans-30" x="63.623047"/>
      </g>
     </g>
    </g>
    <g id="text_8">
     <!-- Generations -->
     <g transform="translate(205.662344 335.860562) scale(0.1 -0.1)">
      <defs>
       <path id="DejaVuSans-47" d="M 3809 666 
L 3809 1919 
L 2778 1919 
L 2778 2438 
L 4434 2438 
L 4434 434 
Q 4069 175 3628 42 
Q 3188 -91 2688 -91 
Q 1594 -91 976 548 
Q 359 1188 359 2328 
Q 359 3472 976 4111 
Q 1594 4750 2688 4750 
Q 3144 4750 3555 4637 
Q 3966 4525 4313 4306 
L 4313 3634 
Q 3963 3931 3569 4081 
Q 3175 4231 2741 4231 
Q 1884 4231 1454 3753 
Q 1025 3275 1025 2328 
Q 1025 1384 1454 906 
Q 1884 428 2741 428 
Q 3075 428 3337 486 
Q 3600 544 3809 666 
z
" transform="scale(0.015625)"/>
       <path id="DejaVuSans-65" d="M 3597 1894 
L 3597 1613 
L 953 1613 
Q 991 1019 1311 708 
Q 1631 397 2203 397 
Q 2534 397 2845 478 
Q 3156 559 3463 722 
L 3463 178 
Q 3153 47 2828 -22 
Q 2503 -91 2169 -91 
Q 1331 -91 842 396 
Q 353 884 353 1716 
Q 353 2575 817 3079 
Q 1281 3584 2069 3584 
Q 2775 3584 3186 3129 
Q 3597 2675 3597 1894 
z
M 3022 2063 
Q 3016 2534 2758 2815 
Q 2500 3097 2075 3097 
Q 1594 3097 1305 2825 
Q 1016 2553 972 2059 
L 3022 2063 
z
" transform="scale(0.015625)"/>
       <path id="DejaVuSans-6e" d="M 3513 2113 
L 3513 0 
L 2938 0 
L 2938 2094 
Q 2938 2591 2744 2837 
Q 2550 3084 2163 3084 
Q 1697 3084 1428 2787 
Q 1159 2491 1159 1978 
L 1159 0 
L 581 0 
L 581 3500 
L 1159 3500 
L 1159 2956 
Q 1366 3272 1645 3428 
Q 1925 3584 2291 3584 
Q 2894 3584 3203 3211 
Q 3513 2838 3513 2113 
z
" transform="scale(0.015625)"/>
       <path id="DejaVuSans-72" d="M 2631 2963 
Q 2534 3019 2420 3045 
Q 2306 3072 2169 3072 
Q 1681 3072 1420 2755 
Q 1159 2438 1159 1844 
L 1159 0 
L 581 0 
L 581 3500 
L 1159 3500 
L 1159 2956 
Q 1341 3275 1631 3429 
Q 1922 3584 2338 3584 
Q 2397 3584 2469 3576 
Q 2541 3569 2628 3553 
L 2631 2963 
z
" transform="scale(0.015625)"/>
       <path id="DejaVuSans-61" d="M 2194 1759 
Q 1497 1759 1228 1600 
Q 959 1441 959 1056 
Q 959 750 1161 570 
Q 1363 391 1709 391 
Q 2188 391 2477 730 
Q 2766 1069 2766 1631 
L 2766 1759 
L 2194 1759 
z
M 3341 1997 
L 3341 0 
L 2766 0 
L 2766 531 
Q 2569 213 2275 61 
Q 1981 -91 1556 -91 
Q 1019 -91 701 211 
Q 384 513 384 1019 
Q 384 1609 779 1909 
Q 1175 2209 1959 2209 
L 2766 2209 
L 2766 2266 
Q 2766 2663 2505 2880 
Q 2244 3097 1772 3097 
Q 1472 3097 1187 3025 
Q 903 2953 641 2809 
L 641 3341 
Q 956 3463 1253 3523 
Q 1550 3584 1831 3584 
Q 2591 3584 2966 3190 
Q 3341 2797 3341 1997 
z
" transform="scale(0.015625)"/>
       <path id="DejaVuSans-74" d="M 1172 4494 
L 1172 3500 
L 2356 3500 
L 2356 3053 
L 1172 3053 
L 1172 1153 
Q 1172 725 1289 603 
Q 1406 481 1766 481 
L 2356 481 
L 2356 0 
L 1766 0 
Q 1100 0 847 248 
Q 594 497 594 1153 
L 594 3053 
L 172 3053 
L 172 3500 
L 594 3500 
L 594 4494 
L 1172 4494 
z
" transform="scale(0.015625)"/>
       <path id="DejaVuSans-69" d="M 603 3500 
L 1178 3500 
L 1178 0 
L 603 0 
L 603 3500 
z
M 603 4863 
L 1178 4863 
L 1178 4134 
L 603 4134 
L 603 4863 
z
" transform="scale(0.015625)"/>
       <path id="DejaVuSans-6f" d="M 1959 3097 
Q 1497 3097 1228 2736 
Q 959 2375 959 1747 
Q 959 1119 1226 758 
Q 1494 397 1959 397 
Q 2419 397 2687 759 
Q 2956 1122 2956 1747 
Q 2956 2369 2687 2733 
Q 2419 3097 1959 3097 
z
M 1959 3584 
Q 2709 3584 3137 3096 
Q 3566 2609 3566 1747 
Q 3566 888 3137 398 
Q 2709 -91 1959 -91 
Q 1206 -91 779 398 
Q 353 888 353 1747 
Q 353 2609 779 3096 
Q 1206 3584 1959 3584 
z
" transform="scale(0.015625)"/>
       <path id="DejaVuSans-73" d="M 2834 3397 
L 2834 2853 
Q 2591 2978 2328 3040 
Q 2066 3103 1784 3103 
Q 1356 3103 1142 2972 
Q 928 2841 928 2578 
Q 928 2378 1081 2264 
Q 1234 2150 1697 2047 
L 1894 2003 
Q 2506 1872 2764 1633 
Q 3022 1394 3022 966 
Q 3022 478 2636 193 
Q 2250 -91 1575 -91 
Q 1294 -91 989 -36 
Q 684 19 347 128 
L 347 722 
Q 666 556 975 473 
Q 1284 391 1588 391 
Q 1994 391 2212 530 
Q 2431 669 2431 922 
Q 2431 1156 2273 1281 
Q 2116 1406 1581 1522 
L 1381 1569 
Q 847 1681 609 1914 
Q 372 2147 372 2553 
Q 372 3047 722 3315 
Q 1072 3584 1716 3584 
Q 2034 3584 2315 3537 
Q 2597 3491 2834 3397 
z
" transform="scale(0.015625)"/>
      </defs>
      <use xlink:href="#DejaVuSans-47"/>
      <use xlink:href="#DejaVuSans-65" x="77.490234"/>
      <use xlink:href="#DejaVuSans-6e" x="139.013672"/>
      <use xlink:href="#DejaVuSans-65" x="202.392578"/>
      <use xlink:href="#DejaVuSans-72" x="263.916016"/>
      <use xlink:href="#DejaVuSans-61" x="305.029297"/>
      <use xlink:href="#DejaVuSans-74" x="366.308594"/>
      <use xlink:href="#DejaVuSans-69" x="405.517578"/>
      <use xlink:href="#DejaVuSans-6f" x="433.300781"/>
      <use xlink:href="#DejaVuSans-6e" x="494.482422"/>
      <use xlink:href="#DejaVuSans-73" x="557.861328"/>
     </g>
    </g>
   </g>
   <g id="matplotlib.axis_2">
    <g id="ytick_1">
     <g id="line2d_8">
      <defs>
       <path id="m7bce3a85f7" d="M 0 0 
L -3.5 0 
" style="stroke: #000000; stroke-width: 0.8"/>
      </defs>
      <g>
       <use xlink:href="#m7bce3a85f7" x="57.6" y="307.584" style="stroke: #000000; stroke-width: 0.8"/>
      </g>
     </g>
     <g id="text_9">
      <!-- 0 -->
      <g transform="translate(44.2375 311.383219) scale(0.1 -0.1)">
       <use xlink:href="#DejaVuSans-30"/>
      </g>
     </g>
    </g>
    <g id="ytick_2">
     <g id="line2d_9">
      <g>
       <use xlink:href="#m7bce3a85f7" x="57.6" y="274.015788" style="stroke: #000000; stroke-width: 0.8"/>
      </g>
     </g>
     <g id="text_10">
      <!-- 20 -->
      <g transform="translate(37.875 277.815007) scale(0.1 -0.1)">
       <use xlink:href="#DejaVuSans-32"/>
       <use xlink:href="#DejaVuSans-30" x="63.623047"/>
      </g>
     </g>
    </g>
    <g id="ytick_3">
     <g id="line2d_10">
      <g>
       <use xlink:href="#m7bce3a85f7" x="57.6" y="240.447576" style="stroke: #000000; stroke-width: 0.8"/>
      </g>
     </g>
     <g id="text_11">
      <!-- 40 -->
      <g transform="translate(37.875 244.246795) scale(0.1 -0.1)">
       <use xlink:href="#DejaVuSans-34"/>
       <use xlink:href="#DejaVuSans-30" x="63.623047"/>
      </g>
     </g>
    </g>
    <g id="ytick_4">
     <g id="line2d_11">
      <g>
       <use xlink:href="#m7bce3a85f7" x="57.6" y="206.879364" style="stroke: #000000; stroke-width: 0.8"/>
      </g>
     </g>
     <g id="text_12">
      <!-- 60 -->
      <g transform="translate(37.875 210.678583) scale(0.1 -0.1)">
       <use xlink:href="#DejaVuSans-36"/>
       <use xlink:href="#DejaVuSans-30" x="63.623047"/>
      </g>
     </g>
    </g>
    <g id="ytick_5">
     <g id="line2d_12">
      <g>
       <use xlink:href="#m7bce3a85f7" x="57.6" y="173.311152" style="stroke: #000000; stroke-width: 0.8"/>
      </g>
     </g>
     <g id="text_13">
      <!-- 80 -->
      <g transform="translate(37.875 177.110371) scale(0.1 -0.1)">
       <defs>
        <path id="DejaVuSans-38" d="M 2034 2216 
Q 1584 2216 1326 1975 
Q 1069 1734 1069 1313 
Q 1069 891 1326 650 
Q 1584 409 2034 409 
Q 2484 409 2743 651 
Q 3003 894 3003 1313 
Q 3003 1734 2745 1975 
Q 2488 2216 2034 2216 
z
M 1403 2484 
Q 997 2584 770 2862 
Q 544 3141 544 3541 
Q 544 4100 942 4425 
Q 1341 4750 2034 4750 
Q 2731 4750 3128 4425 
Q 3525 4100 3525 3541 
Q 3525 3141 3298 2862 
Q 3072 2584 2669 2484 
Q 3125 2378 3379 2068 
Q 3634 1759 3634 1313 
Q 3634 634 3220 271 
Q 2806 -91 2034 -91 
Q 1263 -91 848 271 
Q 434 634 434 1313 
Q 434 1759 690 2068 
Q 947 2378 1403 2484 
z
M 1172 3481 
Q 1172 3119 1398 2916 
Q 1625 2713 2034 2713 
Q 2441 2713 2670 2916 
Q 2900 3119 2900 3481 
Q 2900 3844 2670 4047 
Q 2441 4250 2034 4250 
Q 1625 4250 1398 4047 
Q 1172 3844 1172 3481 
z
" transform="scale(0.015625)"/>
       </defs>
       <use xlink:href="#DejaVuSans-38"/>
       <use xlink:href="#DejaVuSans-30" x="63.623047"/>
      </g>
     </g>
    </g>
    <g id="ytick_6">
     <g id="line2d_13">
      <g>
       <use xlink:href="#m7bce3a85f7" x="57.6" y="139.74294" style="stroke: #000000; stroke-width: 0.8"/>
      </g>
     </g>
     <g id="text_14">
      <!-- 100 -->
      <g transform="translate(31.5125 143.542159) scale(0.1 -0.1)">
       <use xlink:href="#DejaVuSans-31"/>
       <use xlink:href="#DejaVuSans-30" x="63.623047"/>
       <use xlink:href="#DejaVuSans-30" x="127.246094"/>
      </g>
     </g>
    </g>
    <g id="ytick_7">
     <g id="line2d_14">
      <g>
       <use xlink:href="#m7bce3a85f7" x="57.6" y="106.174728" style="stroke: #000000; stroke-width: 0.8"/>
      </g>
     </g>
     <g id="text_15">
      <!-- 120 -->
      <g transform="translate(31.5125 109.973947) scale(0.1 -0.1)">
       <use xlink:href="#DejaVuSans-31"/>
       <use xlink:href="#DejaVuSans-32" x="63.623047"/>
       <use xlink:href="#DejaVuSans-30" x="127.246094"/>
      </g>
     </g>
    </g>
    <g id="ytick_8">
     <g id="line2d_15">
      <g>
       <use xlink:href="#m7bce3a85f7" x="57.6" y="72.606517" style="stroke: #000000; stroke-width: 0.8"/>
      </g>
     </g>
     <g id="text_16">
      <!-- 140 -->
      <g transform="translate(31.5125 76.405735) scale(0.1 -0.1)">
       <use xlink:href="#DejaVuSans-31"/>
       <use xlink:href="#DejaVuSans-34" x="63.623047"/>
       <use xlink:href="#DejaVuSans-30" x="127.246094"/>
      </g>
     </g>
    </g>
    <g id="text_17">
     <!-- Size per Species -->
     <g transform="translate(25.432812 215.520969) rotate(-90) scale(0.1 -0.1)">
      <defs>
       <path id="DejaVuSans-53" d="M 3425 4513 
L 3425 3897 
Q 3066 4069 2747 4153 
Q 2428 4238 2131 4238 
Q 1616 4238 1336 4038 
Q 1056 3838 1056 3469 
Q 1056 3159 1242 3001 
Q 1428 2844 1947 2747 
L 2328 2669 
Q 3034 2534 3370 2195 
Q 3706 1856 3706 1288 
Q 3706 609 3251 259 
Q 2797 -91 1919 -91 
Q 1588 -91 1214 -16 
Q 841 59 441 206 
L 441 856 
Q 825 641 1194 531 
Q 1563 422 1919 422 
Q 2459 422 2753 634 
Q 3047 847 3047 1241 
Q 3047 1584 2836 1778 
Q 2625 1972 2144 2069 
L 1759 2144 
Q 1053 2284 737 2584 
Q 422 2884 422 3419 
Q 422 4038 858 4394 
Q 1294 4750 2059 4750 
Q 2388 4750 2728 4690 
Q 3069 4631 3425 4513 
z
" transform="scale(0.015625)"/>
       <path id="DejaVuSans-7a" d="M 353 3500 
L 3084 3500 
L 3084 2975 
L 922 459 
L 3084 459 
L 3084 0 
L 275 0 
L 275 525 
L 2438 3041 
L 353 3041 
L 353 3500 
z
" transform="scale(0.015625)"/>
       <path id="DejaVuSans-20" transform="scale(0.015625)"/>
       <path id="DejaVuSans-70" d="M 1159 525 
L 1159 -1331 
L 581 -1331 
L 581 3500 
L 1159 3500 
L 1159 2969 
Q 1341 3281 1617 3432 
Q 1894 3584 2278 3584 
Q 2916 3584 3314 3078 
Q 3713 2572 3713 1747 
Q 3713 922 3314 415 
Q 2916 -91 2278 -91 
Q 1894 -91 1617 61 
Q 1341 213 1159 525 
z
M 3116 1747 
Q 3116 2381 2855 2742 
Q 2594 3103 2138 3103 
Q 1681 3103 1420 2742 
Q 1159 2381 1159 1747 
Q 1159 1113 1420 752 
Q 1681 391 2138 391 
Q 2594 391 2855 752 
Q 3116 1113 3116 1747 
z
" transform="scale(0.015625)"/>
       <path id="DejaVuSans-63" d="M 3122 3366 
L 3122 2828 
Q 2878 2963 2633 3030 
Q 2388 3097 2138 3097 
Q 1578 3097 1268 2742 
Q 959 2388 959 1747 
Q 959 1106 1268 751 
Q 1578 397 2138 397 
Q 2388 397 2633 464 
Q 2878 531 3122 666 
L 3122 134 
Q 2881 22 2623 -34 
Q 2366 -91 2075 -91 
Q 1284 -91 818 406 
Q 353 903 353 1747 
Q 353 2603 823 3093 
Q 1294 3584 2113 3584 
Q 2378 3584 2631 3529 
Q 2884 3475 3122 3366 
z
" transform="scale(0.015625)"/>
      </defs>
      <use xlink:href="#DejaVuSans-53"/>
      <use xlink:href="#DejaVuSans-69" x="63.476562"/>
      <use xlink:href="#DejaVuSans-7a" x="91.259766"/>
      <use xlink:href="#DejaVuSans-65" x="143.75"/>
      <use xlink:href="#DejaVuSans-20" x="205.273438"/>
      <use xlink:href="#DejaVuSans-70" x="237.060547"/>
      <use xlink:href="#DejaVuSans-65" x="300.537109"/>
      <use xlink:href="#DejaVuSans-72" x="362.060547"/>
      <use xlink:href="#DejaVuSans-20" x="403.173828"/>
      <use xlink:href="#DejaVuSans-53" x="434.960938"/>
      <use xlink:href="#DejaVuSans-70" x="498.4375"/>
      <use xlink:href="#DejaVuSans-65" x="561.914062"/>
      <use xlink:href="#DejaVuSans-63" x="623.4375"/>
      <use xlink:href="#DejaVuSans-69" x="678.417969"/>
      <use xlink:href="#DejaVuSans-65" x="706.201172"/>
      <use xlink:href="#DejaVuSans-73" x="767.724609"/>
     </g>
    </g>
   </g>
   <g id="patch_3">
    <path d="M 57.6 307.584 
L 57.6 41.472 
" style="fill: none; stroke: #000000; stroke-width: 0.8; stroke-linejoin: miter; stroke-linecap: square"/>
   </g>
   <g id="patch_4">
    <path d="M 414.72 307.584 
L 414.72 41.472 
" style="fill: none; stroke: #000000; stroke-width: 0.8; stroke-linejoin: miter; stroke-linecap: square"/>
   </g>
   <g id="patch_5">
    <path d="M 57.6 307.584 
L 414.72 307.584 
" style="fill: none; stroke: #000000; stroke-width: 0.8; stroke-linejoin: miter; stroke-linecap: square"/>
   </g>
   <g id="patch_6">
    <path d="M 57.6 41.472 
L 414.72 41.472 
" style="fill: none; stroke: #000000; stroke-width: 0.8; stroke-linejoin: miter; stroke-linecap: square"/>
   </g>
   <g id="text_18">
    <!-- Speciation -->
    <g transform="translate(204.714375 35.472) scale(0.12 -0.12)">
     <use xlink:href="#DejaVuSans-53"/>
     <use xlink:href="#DejaVuSans-70" x="63.476562"/>
     <use xlink:href="#DejaVuSans-65" x="126.953125"/>
     <use xlink:href="#DejaVuSans-63" x="188.476562"/>
     <use xlink:href="#DejaVuSans-69" x="243.457031"/>
     <use xlink:href="#DejaVuSans-61" x="271.240234"/>
     <use xlink:href="#DejaVuSans-74" x="332.519531"/>
     <use xlink:href="#DejaVuSans-69" x="371.728516"/>
     <use xlink:href="#DejaVuSans-6f" x="399.511719"/>
     <use xlink:href="#DejaVuSans-6e" x="460.693359"/>
    </g>
   </g>
  </g>
 </g>
 <defs>
  <clipPath id="p60763645d1">
   <rect x="57.6" y="41.472" width="357.12" height="266.112"/>
  </clipPath>
 </defs>
</svg>
