<?xml version="1.0" encoding="utf-8" standalone="no"?>
<!DOCTYPE svg PUBLIC "-//W3C//DTD SVG 1.1//EN"
  "http://www.w3.org/Graphics/SVG/1.1/DTD/svg11.dtd">
<svg xmlns:xlink="http://www.w3.org/1999/xlink" width="460.8pt" height="345.6pt" viewBox="0 0 460.8 345.6" xmlns="http://www.w3.org/2000/svg" version="1.1">
 <metadata>
  <rdf:RDF xmlns:dc="http://purl.org/dc/elements/1.1/" xmlns:cc="http://creativecommons.org/ns#" xmlns:rdf="http://www.w3.org/1999/02/22-rdf-syntax-ns#">
   <cc:Work>
    <dc:type rdf:resource="http://purl.org/dc/dcmitype/StillImage"/>
    <dc:date>2024-04-16T17:10:46.384276</dc:date>
    <dc:format>image/svg+xml</dc:format>
    <dc:creator>
     <cc:Agent>
      <dc:title>Matplotlib v3.8.4, https://matplotlib.org/</dc:title>
     </cc:Agent>
    </dc:creator>
   </cc:Work>
  </rdf:RDF>
 </metadata>
 <defs>
  <style type="text/css">*{stroke-linejoin: round; stroke-linecap: butt}</style>
 </defs>
 <g id="figure_1">
  <g id="patch_1">
   <path d="M 0 345.6 
L 460.8 345.6 
L 460.8 0 
L 0 0 
z
" style="fill: #ffffff"/>
  </g>
  <g id="axes_1">
   <g id="patch_2">
    <path d="M 57.6 307.584 
L 414.72 307.584 
L 414.72 41.472 
L 57.6 41.472 
z
" style="fill: #ffffff"/>
   </g>
   <g id="PolyCollection_1">
    <path d="M 73.832727 55.822411 
L 73.832727 307.584 
L 77.112066 307.584 
L 80.391405 307.584 
L 83.670744 307.584 
L 86.950083 307.584 
L 90.229421 307.584 
L 93.50876 307.584 
L 96.788099 307.584 
L 100.067438 307.584 
L 103.346777 307.584 
L 106.626116 307.584 
L 109.905455 307.584 
L 113.184793 307.584 
L 116.464132 307.584 
L 119.743471 307.584 
L 123.02281 307.584 
L 126.302149 307.584 
L 129.581488 307.584 
L 132.860826 307.584 
L 136.140165 307.584 
L 139.419504 307.584 
L 142.698843 307.584 
L 145.978182 307.584 
L 149.257521 307.584 
L 152.53686 307.584 
L 155.816198 307.584 
L 159.095537 307.584 
L 162.374876 307.584 
L 165.654215 307.584 
L 168.933554 307.584 
L 172.212893 307.584 
L 175.492231 307.584 
L 178.77157 307.584 
L 182.050909 307.584 
L 185.330248 307.584 
L 188.609587 307.584 
L 191.888926 307.584 
L 195.168264 307.584 
L 198.447603 307.584 
L 201.726942 307.584 
L 205.006281 307.584 
L 208.28562 307.584 
L 211.564959 307.584 
L 214.844298 307.584 
L 218.123636 307.584 
L 221.402975 307.584 
L 224.682314 307.584 
L 227.961653 307.584 
L 231.240992 307.584 
L 234.520331 307.584 
L 237.799669 307.584 
L 241.079008 307.584 
L 244.358347 307.584 
L 247.637686 307.584 
L 250.917025 307.584 
L 254.196364 307.584 
L 257.475702 307.584 
L 260.755041 307.584 
L 264.03438 307.584 
L 267.313719 307.584 
L 270.593058 307.584 
L 273.872397 307.584 
L 277.151736 307.584 
L 280.431074 307.584 
L 283.710413 307.584 
L 286.989752 307.584 
L 290.269091 307.584 
L 293.54843 307.584 
L 296.827769 307.584 
L 300.107107 307.584 
L 303.386446 307.584 
L 306.665785 307.584 
L 309.945124 307.584 
L 313.224463 307.584 
L 316.503802 307.584 
L 319.78314 307.584 
L 323.062479 307.584 
L 326.341818 307.584 
L 329.621157 307.584 
L 332.900496 307.584 
L 336.179835 307.584 
L 339.459174 307.584 
L 342.738512 307.584 
L 346.017851 307.584 
L 349.29719 307.584 
L 352.576529 307.584 
L 355.855868 307.584 
L 359.135207 307.584 
L 362.414545 307.584 
L 365.693884 307.584 
L 368.973223 307.584 
L 372.252562 307.584 
L 375.531901 307.584 
L 378.81124 307.584 
L 382.090579 307.584 
L 385.369917 307.584 
L 388.649256 307.584 
L 391.928595 307.584 
L 395.207934 307.584 
L 398.487273 307.584 
L 398.487273 250.51804 
L 398.487273 250.51804 
L 395.207934 235.412344 
L 391.928595 248.839629 
L 388.649256 218.628238 
L 385.369917 223.66347 
L 382.090579 260.588503 
L 378.81124 263.945325 
L 375.531901 230.377113 
L 372.252562 238.769166 
L 368.973223 235.412344 
L 365.693884 227.020291 
L 362.414545 238.769166 
L 359.135207 247.161219 
L 355.855868 237.090755 
L 352.576529 243.804397 
L 349.29719 247.161219 
L 346.017851 247.161219 
L 342.738512 235.412344 
L 339.459174 250.51804 
L 336.179835 255.553272 
L 332.900496 252.19645 
L 329.621157 243.804397 
L 326.341818 247.161219 
L 323.062479 257.231682 
L 319.78314 252.19645 
L 316.503802 248.839629 
L 313.224463 265.623735 
L 309.945124 257.231682 
L 306.665785 270.658967 
L 303.386446 260.588503 
L 300.107107 267.302146 
L 296.827769 279.05102 
L 293.54843 282.407841 
L 290.269091 287.443073 
L 286.989752 242.125987 
L 283.710413 247.161219 
L 280.431074 230.377113 
L 277.151736 223.66347 
L 273.872397 265.623735 
L 270.593058 275.694199 
L 267.313719 290.799894 
L 264.03438 270.658967 
L 260.755041 265.623735 
L 257.475702 260.588503 
L 254.196364 270.658967 
L 250.917025 297.513536 
L 247.637686 252.19645 
L 244.358347 265.623735 
L 241.079008 265.623735 
L 237.799669 277.372609 
L 234.520331 260.588503 
L 231.240992 267.302146 
L 227.961653 237.090755 
L 224.682314 265.623735 
L 221.402975 294.156715 
L 218.123636 235.412344 
L 214.844298 216.949828 
L 211.564959 232.055523 
L 208.28562 235.412344 
L 205.006281 233.733934 
L 201.726942 287.443073 
L 198.447603 305.905589 
L 195.168264 185.060026 
L 191.888926 265.623735 
L 188.609587 265.623735 
L 185.330248 248.839629 
L 182.050909 247.161219 
L 178.77157 242.125987 
L 175.492231 220.306649 
L 172.212893 218.628238 
L 168.933554 210.236185 
L 165.654215 188.416848 
L 162.374876 255.553272 
L 159.095537 253.874861 
L 155.816198 268.980556 
L 152.53686 196.808901 
L 149.257521 300.870358 
L 145.978182 191.773669 
L 142.698843 215.271417 
L 139.419504 218.628238 
L 136.140165 227.020291 
L 132.860826 260.588503 
L 129.581488 255.553272 
L 126.302149 265.623735 
L 123.02281 279.05102 
L 119.743471 289.121483 
L 116.464132 267.302146 
L 113.184793 253.874861 
L 109.905455 210.236185 
L 106.626116 213.593007 
L 103.346777 166.59751 
L 100.067438 171.632742 
L 96.788099 174.989563 
L 93.50876 156.527046 
L 90.229421 153.170225 
L 86.950083 159.883868 
L 83.670744 107.853139 
L 80.391405 65.892874 
L 77.112066 55.822411 
L 73.832727 55.822411 
z
" clip-path="url(#p5c1abc0748)" style="fill: #1f77b4"/>
   </g>
   <g id="PolyCollection_2">
    <path d="M 73.832727 55.822411 
L 73.832727 55.822411 
L 77.112066 55.822411 
L 80.391405 65.892874 
L 83.670744 107.853139 
L 86.950083 159.883868 
L 90.229421 153.170225 
L 93.50876 156.527046 
L 96.788099 174.989563 
L 100.067438 171.632742 
L 103.346777 166.59751 
L 106.626116 213.593007 
L 109.905455 210.236185 
L 113.184793 253.874861 
L 116.464132 267.302146 
L 119.743471 289.121483 
L 123.02281 279.05102 
L 126.302149 265.623735 
L 129.581488 255.553272 
L 132.860826 260.588503 
L 136.140165 227.020291 
L 139.419504 218.628238 
L 142.698843 215.271417 
L 145.978182 191.773669 
L 149.257521 300.870358 
L 152.53686 196.808901 
L 155.816198 268.980556 
L 159.095537 253.874861 
L 162.374876 255.553272 
L 165.654215 188.416848 
L 168.933554 210.236185 
L 172.212893 218.628238 
L 175.492231 220.306649 
L 178.77157 242.125987 
L 182.050909 247.161219 
L 185.330248 248.839629 
L 188.609587 265.623735 
L 191.888926 265.623735 
L 195.168264 185.060026 
L 198.447603 305.905589 
L 201.726942 287.443073 
L 205.006281 233.733934 
L 208.28562 235.412344 
L 211.564959 232.055523 
L 214.844298 216.949828 
L 218.123636 235.412344 
L 221.402975 294.156715 
L 224.682314 265.623735 
L 227.961653 237.090755 
L 231.240992 267.302146 
L 234.520331 260.588503 
L 237.799669 277.372609 
L 241.079008 265.623735 
L 244.358347 265.623735 
L 247.637686 252.19645 
L 250.917025 297.513536 
L 254.196364 270.658967 
L 257.475702 260.588503 
L 260.755041 265.623735 
L 264.03438 270.658967 
L 267.313719 290.799894 
L 270.593058 275.694199 
L 273.872397 265.623735 
L 277.151736 223.66347 
L 280.431074 230.377113 
L 283.710413 247.161219 
L 286.989752 242.125987 
L 290.269091 287.443073 
L 293.54843 282.407841 
L 296.827769 279.05102 
L 300.107107 267.302146 
L 303.386446 260.588503 
L 306.665785 270.658967 
L 309.945124 257.231682 
L 313.224463 265.623735 
L 316.503802 248.839629 
L 319.78314 252.19645 
L 323.062479 257.231682 
L 326.341818 247.161219 
L 329.621157 243.804397 
L 332.900496 252.19645 
L 336.179835 255.553272 
L 339.459174 250.51804 
L 342.738512 235.412344 
L 346.017851 247.161219 
L 349.29719 247.161219 
L 352.576529 243.804397 
L 355.855868 237.090755 
L 359.135207 247.161219 
L 362.414545 238.769166 
L 365.693884 227.020291 
L 368.973223 235.412344 
L 372.252562 238.769166 
L 375.531901 230.377113 
L 378.81124 263.945325 
L 382.090579 260.588503 
L 385.369917 223.66347 
L 388.649256 218.628238 
L 391.928595 248.839629 
L 395.207934 235.412344 
L 398.487273 250.51804 
L 398.487273 193.452079 
L 398.487273 193.452079 
L 395.207934 181.703205 
L 391.928595 171.632742 
L 388.649256 178.346384 
L 385.369917 178.346384 
L 382.090579 185.060026 
L 378.81124 188.416848 
L 375.531901 180.024795 
L 372.252562 180.024795 
L 368.973223 178.346384 
L 365.693884 183.381616 
L 362.414545 171.632742 
L 359.135207 169.954331 
L 355.855868 168.275921 
L 352.576529 178.346384 
L 349.29719 173.311152 
L 346.017851 185.060026 
L 342.738512 176.667974 
L 339.459174 201.844132 
L 336.179835 203.522543 
L 332.900496 198.487311 
L 329.621157 173.311152 
L 326.341818 173.311152 
L 323.062479 171.632742 
L 319.78314 198.487311 
L 316.503802 191.773669 
L 313.224463 188.416848 
L 309.945124 201.844132 
L 306.665785 205.200954 
L 303.386446 201.844132 
L 300.107107 205.200954 
L 296.827769 206.879364 
L 293.54843 201.844132 
L 290.269091 200.165722 
L 286.989752 201.844132 
L 283.710413 203.522543 
L 280.431074 200.165722 
L 277.151736 193.452079 
L 273.872397 242.125987 
L 270.593058 230.377113 
L 267.313719 240.447576 
L 264.03438 218.628238 
L 260.755041 211.914596 
L 257.475702 210.236185 
L 254.196364 205.200954 
L 250.917025 201.844132 
L 247.637686 215.271417 
L 244.358347 220.306649 
L 241.079008 221.98506 
L 237.799669 205.200954 
L 234.520331 208.557775 
L 231.240992 198.487311 
L 227.961653 190.095258 
L 224.682314 198.487311 
L 221.402975 196.808901 
L 218.123636 186.738437 
L 214.844298 176.667974 
L 211.564959 186.738437 
L 208.28562 195.13049 
L 205.006281 193.452079 
L 201.726942 215.271417 
L 198.447603 185.060026 
L 195.168264 183.381616 
L 191.888926 180.024795 
L 188.609587 181.703205 
L 185.330248 178.346384 
L 182.050909 181.703205 
L 178.77157 188.416848 
L 175.492231 196.808901 
L 172.212893 183.381616 
L 168.933554 186.738437 
L 165.654215 183.381616 
L 162.374876 181.703205 
L 159.095537 183.381616 
L 155.816198 193.452079 
L 152.53686 178.346384 
L 149.257521 186.738437 
L 145.978182 166.59751 
L 142.698843 178.346384 
L 139.419504 196.808901 
L 136.140165 195.13049 
L 132.860826 180.024795 
L 129.581488 180.024795 
L 126.302149 180.024795 
L 123.02281 185.060026 
L 119.743471 190.095258 
L 116.464132 196.808901 
L 113.184793 198.487311 
L 109.905455 141.421351 
L 106.626116 124.637245 
L 103.346777 107.853139 
L 100.067438 101.139497 
L 96.788099 127.994066 
L 93.50876 119.602013 
L 90.229421 102.817907 
L 86.950083 96.104265 
L 83.670744 62.536053 
L 80.391405 55.822411 
L 77.112066 55.822411 
L 73.832727 55.822411 
z
" clip-path="url(#p5c1abc0748)" style="fill: #ff7f0e"/>
   </g>
   <g id="PolyCollection_3">
    <path d="M 73.832727 55.822411 
L 73.832727 55.822411 
L 77.112066 55.822411 
L 80.391405 55.822411 
L 83.670744 62.536053 
L 86.950083 96.104265 
L 90.229421 102.817907 
L 93.50876 119.602013 
L 96.788099 127.994066 
L 100.067438 101.139497 
L 103.346777 107.853139 
L 106.626116 124.637245 
L 109.905455 141.421351 
L 113.184793 198.487311 
L 116.464132 196.808901 
L 119.743471 190.095258 
L 123.02281 185.060026 
L 126.302149 180.024795 
L 129.581488 180.024795 
L 132.860826 180.024795 
L 136.140165 195.13049 
L 139.419504 196.808901 
L 142.698843 178.346384 
L 145.978182 166.59751 
L 149.257521 186.738437 
L 152.53686 178.346384 
L 155.816198 193.452079 
L 159.095537 183.381616 
L 162.374876 181.703205 
L 165.654215 183.381616 
L 168.933554 186.738437 
L 172.212893 183.381616 
L 175.492231 196.808901 
L 178.77157 188.416848 
L 182.050909 181.703205 
L 185.330248 178.346384 
L 188.609587 181.703205 
L 191.888926 180.024795 
L 195.168264 183.381616 
L 198.447603 185.060026 
L 201.726942 215.271417 
L 205.006281 193.452079 
L 208.28562 195.13049 
L 211.564959 186.738437 
L 214.844298 176.667974 
L 218.123636 186.738437 
L 221.402975 196.808901 
L 224.682314 198.487311 
L 227.961653 190.095258 
L 231.240992 198.487311 
L 234.520331 208.557775 
L 237.799669 205.200954 
L 241.079008 221.98506 
L 244.358347 220.306649 
L 247.637686 215.271417 
L 250.917025 201.844132 
L 254.196364 205.200954 
L 257.475702 210.236185 
L 260.755041 211.914596 
L 264.03438 218.628238 
L 267.313719 240.447576 
L 270.593058 230.377113 
L 273.872397 242.125987 
L 277.151736 193.452079 
L 280.431074 200.165722 
L 283.710413 203.522543 
L 286.989752 201.844132 
L 290.269091 200.165722 
L 293.54843 201.844132 
L 296.827769 206.879364 
L 300.107107 205.200954 
L 303.386446 201.844132 
L 306.665785 205.200954 
L 309.945124 201.844132 
L 313.224463 188.416848 
L 316.503802 191.773669 
L 319.78314 198.487311 
L 323.062479 171.632742 
L 326.341818 173.311152 
L 329.621157 173.311152 
L 332.900496 198.487311 
L 336.179835 203.522543 
L 339.459174 201.844132 
L 342.738512 176.667974 
L 346.017851 185.060026 
L 349.29719 173.311152 
L 352.576529 178.346384 
L 355.855868 168.275921 
L 359.135207 169.954331 
L 362.414545 171.632742 
L 365.693884 183.381616 
L 368.973223 178.346384 
L 372.252562 180.024795 
L 375.531901 180.024795 
L 378.81124 188.416848 
L 382.090579 185.060026 
L 385.369917 178.346384 
L 388.649256 178.346384 
L 391.928595 171.632742 
L 395.207934 181.703205 
L 398.487273 193.452079 
L 398.487273 193.452079 
L 398.487273 193.452079 
L 395.207934 181.703205 
L 391.928595 171.632742 
L 388.649256 178.346384 
L 385.369917 178.346384 
L 382.090579 185.060026 
L 378.81124 188.416848 
L 375.531901 180.024795 
L 372.252562 180.024795 
L 368.973223 178.346384 
L 365.693884 183.381616 
L 362.414545 171.632742 
L 359.135207 169.954331 
L 355.855868 168.275921 
L 352.576529 178.346384 
L 349.29719 173.311152 
L 346.017851 185.060026 
L 342.738512 176.667974 
L 339.459174 201.844132 
L 336.179835 203.522543 
L 332.900496 198.487311 
L 329.621157 173.311152 
L 326.341818 173.311152 
L 323.062479 171.632742 
L 319.78314 146.456583 
L 316.503802 146.456583 
L 313.224463 144.778172 
L 309.945124 149.813404 
L 306.665785 158.205457 
L 303.386446 153.170225 
L 300.107107 158.205457 
L 296.827769 151.491815 
L 293.54843 126.315656 
L 290.269091 143.099762 
L 286.989752 153.170225 
L 283.710413 154.848636 
L 280.431074 149.813404 
L 277.151736 143.099762 
L 273.872397 196.808901 
L 270.593058 190.095258 
L 267.313719 195.13049 
L 264.03438 174.989563 
L 260.755041 159.883868 
L 257.475702 159.883868 
L 254.196364 156.527046 
L 250.917025 148.134993 
L 247.637686 169.954331 
L 244.358347 174.989563 
L 241.079008 178.346384 
L 237.799669 166.59751 
L 234.520331 159.883868 
L 231.240992 148.134993 
L 227.961653 141.421351 
L 224.682314 148.134993 
L 221.402975 144.778172 
L 218.123636 143.099762 
L 214.844298 136.386119 
L 211.564959 146.456583 
L 208.28562 149.813404 
L 205.006281 146.456583 
L 201.726942 161.562278 
L 198.447603 141.421351 
L 195.168264 144.778172 
L 191.888926 141.421351 
L 188.609587 138.06453 
L 185.330248 133.029298 
L 182.050909 131.350887 
L 178.77157 141.421351 
L 175.492231 151.491815 
L 172.212893 141.421351 
L 168.933554 143.099762 
L 165.654215 148.134993 
L 162.374876 138.06453 
L 159.095537 136.386119 
L 155.816198 144.778172 
L 152.53686 133.029298 
L 149.257521 143.099762 
L 145.978182 131.350887 
L 142.698843 138.06453 
L 139.419504 148.134993 
L 136.140165 139.74294 
L 132.860826 149.813404 
L 129.581488 148.134993 
L 126.302149 143.099762 
L 123.02281 148.134993 
L 119.743471 158.205457 
L 116.464132 159.883868 
L 113.184793 151.491815 
L 109.905455 70.928106 
L 106.626116 57.500821 
L 103.346777 57.500821 
L 100.067438 57.500821 
L 96.788099 55.822411 
L 93.50876 55.822411 
L 90.229421 55.822411 
L 86.950083 55.822411 
L 83.670744 55.822411 
L 80.391405 55.822411 
L 77.112066 55.822411 
L 73.832727 55.822411 
z
" clip-path="url(#p5c1abc0748)" style="fill: #2ca02c"/>
   </g>
   <g id="PolyCollection_4">
    <path d="M 73.832727 55.822411 
L 73.832727 55.822411 
L 77.112066 55.822411 
L 80.391405 55.822411 
L 83.670744 55.822411 
L 86.950083 55.822411 
L 90.229421 55.822411 
L 93.50876 55.822411 
L 96.788099 55.822411 
L 100.067438 57.500821 
L 103.346777 57.500821 
L 106.626116 57.500821 
L 109.905455 70.928106 
L 113.184793 151.491815 
L 116.464132 159.883868 
L 119.743471 158.205457 
L 123.02281 148.134993 
L 126.302149 143.099762 
L 129.581488 148.134993 
L 132.860826 149.813404 
L 136.140165 139.74294 
L 139.419504 148.134993 
L 142.698843 138.06453 
L 145.978182 131.350887 
L 149.257521 143.099762 
L 152.53686 133.029298 
L 155.816198 144.778172 
L 159.095537 136.386119 
L 162.374876 138.06453 
L 165.654215 148.134993 
L 168.933554 143.099762 
L 172.212893 141.421351 
L 175.492231 151.491815 
L 178.77157 141.421351 
L 182.050909 131.350887 
L 185.330248 133.029298 
L 188.609587 138.06453 
L 191.888926 141.421351 
L 195.168264 144.778172 
L 198.447603 141.421351 
L 201.726942 161.562278 
L 205.006281 146.456583 
L 208.28562 149.813404 
L 211.564959 146.456583 
L 214.844298 136.386119 
L 218.123636 143.099762 
L 221.402975 144.778172 
L 224.682314 148.134993 
L 227.961653 141.421351 
L 231.240992 148.134993 
L 234.520331 159.883868 
L 237.799669 166.59751 
L 241.079008 178.346384 
L 244.358347 174.989563 
L 247.637686 169.954331 
L 250.917025 148.134993 
L 254.196364 156.527046 
L 257.475702 159.883868 
L 260.755041 159.883868 
L 264.03438 174.989563 
L 267.313719 195.13049 
L 270.593058 190.095258 
L 273.872397 196.808901 
L 277.151736 143.099762 
L 280.431074 149.813404 
L 283.710413 154.848636 
L 286.989752 153.170225 
L 290.269091 143.099762 
L 293.54843 126.315656 
L 296.827769 151.491815 
L 300.107107 158.205457 
L 303.386446 153.170225 
L 306.665785 158.205457 
L 309.945124 149.813404 
L 313.224463 144.778172 
L 316.503802 146.456583 
L 319.78314 146.456583 
L 323.062479 171.632742 
L 326.341818 173.311152 
L 329.621157 173.311152 
L 332.900496 198.487311 
L 336.179835 203.522543 
L 339.459174 201.844132 
L 342.738512 176.667974 
L 346.017851 185.060026 
L 349.29719 173.311152 
L 352.576529 178.346384 
L 355.855868 168.275921 
L 359.135207 169.954331 
L 362.414545 171.632742 
L 365.693884 183.381616 
L 368.973223 178.346384 
L 372.252562 180.024795 
L 375.531901 180.024795 
L 378.81124 188.416848 
L 382.090579 185.060026 
L 385.369917 178.346384 
L 388.649256 178.346384 
L 391.928595 171.632742 
L 395.207934 181.703205 
L 398.487273 193.452079 
L 398.487273 193.452079 
L 398.487273 193.452079 
L 395.207934 181.703205 
L 391.928595 171.632742 
L 388.649256 178.346384 
L 385.369917 178.346384 
L 382.090579 185.060026 
L 378.81124 188.416848 
L 375.531901 180.024795 
L 372.252562 180.024795 
L 368.973223 178.346384 
L 365.693884 183.381616 
L 362.414545 171.632742 
L 359.135207 169.954331 
L 355.855868 168.275921 
L 352.576529 178.346384 
L 349.29719 173.311152 
L 346.017851 185.060026 
L 342.738512 176.667974 
L 339.459174 201.844132 
L 336.179835 203.522543 
L 332.900496 198.487311 
L 329.621157 173.311152 
L 326.341818 173.311152 
L 323.062479 171.632742 
L 319.78314 146.456583 
L 316.503802 146.456583 
L 313.224463 144.778172 
L 309.945124 149.813404 
L 306.665785 158.205457 
L 303.386446 153.170225 
L 300.107107 158.205457 
L 296.827769 151.491815 
L 293.54843 126.315656 
L 290.269091 143.099762 
L 286.989752 153.170225 
L 283.710413 154.848636 
L 280.431074 149.813404 
L 277.151736 143.099762 
L 273.872397 196.808901 
L 270.593058 190.095258 
L 267.313719 195.13049 
L 264.03438 174.989563 
L 260.755041 159.883868 
L 257.475702 159.883868 
L 254.196364 156.527046 
L 250.917025 148.134993 
L 247.637686 134.707709 
L 244.358347 139.74294 
L 241.079008 139.74294 
L 237.799669 119.602013 
L 234.520331 112.888371 
L 231.240992 109.53155 
L 227.961653 102.817907 
L 224.682314 104.496318 
L 221.402975 107.853139 
L 218.123636 106.174728 
L 214.844298 89.390623 
L 211.564959 104.496318 
L 208.28562 106.174728 
L 205.006281 99.461086 
L 201.726942 106.174728 
L 198.447603 92.747444 
L 195.168264 96.104265 
L 191.888926 96.104265 
L 188.609587 94.425854 
L 185.330248 87.712212 
L 182.050909 96.104265 
L 178.77157 91.069033 
L 175.492231 91.069033 
L 172.212893 94.425854 
L 168.933554 96.104265 
L 165.654215 97.782675 
L 162.374876 87.712212 
L 159.095537 89.390623 
L 155.816198 99.461086 
L 152.53686 84.355391 
L 149.257521 91.069033 
L 145.978182 86.033801 
L 142.698843 89.390623 
L 139.419504 94.425854 
L 136.140165 89.390623 
L 132.860826 97.782675 
L 129.581488 94.425854 
L 126.302149 91.069033 
L 123.02281 91.069033 
L 119.743471 87.712212 
L 116.464132 87.712212 
L 113.184793 60.857642 
L 109.905455 55.822411 
L 106.626116 57.500821 
L 103.346777 57.500821 
L 100.067438 57.500821 
L 96.788099 55.822411 
L 93.50876 55.822411 
L 90.229421 55.822411 
L 86.950083 55.822411 
L 83.670744 55.822411 
L 80.391405 55.822411 
L 77.112066 55.822411 
L 73.832727 55.822411 
z
" clip-path="url(#p5c1abc0748)" style="fill: #d62728"/>
   </g>
   <g id="PolyCollection_5">
    <path d="M 73.832727 55.822411 
L 73.832727 55.822411 
L 77.112066 55.822411 
L 80.391405 55.822411 
L 83.670744 55.822411 
L 86.950083 55.822411 
L 90.229421 55.822411 
L 93.50876 55.822411 
L 96.788099 55.822411 
L 100.067438 57.500821 
L 103.346777 57.500821 
L 106.626116 57.500821 
L 109.905455 55.822411 
L 113.184793 60.857642 
L 116.464132 87.712212 
L 119.743471 87.712212 
L 123.02281 91.069033 
L 126.302149 91.069033 
L 129.581488 94.425854 
L 132.860826 97.782675 
L 136.140165 89.390623 
L 139.419504 94.425854 
L 142.698843 89.390623 
L 145.978182 86.033801 
L 149.257521 91.069033 
L 152.53686 84.355391 
L 155.816198 99.461086 
L 159.095537 89.390623 
L 162.374876 87.712212 
L 165.654215 97.782675 
L 168.933554 96.104265 
L 172.212893 94.425854 
L 175.492231 91.069033 
L 178.77157 91.069033 
L 182.050909 96.104265 
L 185.330248 87.712212 
L 188.609587 94.425854 
L 191.888926 96.104265 
L 195.168264 96.104265 
L 198.447603 92.747444 
L 201.726942 106.174728 
L 205.006281 99.461086 
L 208.28562 106.174728 
L 211.564959 104.496318 
L 214.844298 89.390623 
L 218.123636 106.174728 
L 221.402975 107.853139 
L 224.682314 104.496318 
L 227.961653 102.817907 
L 231.240992 109.53155 
L 234.520331 112.888371 
L 237.799669 119.602013 
L 241.079008 139.74294 
L 244.358347 139.74294 
L 247.637686 134.707709 
L 250.917025 148.134993 
L 254.196364 156.527046 
L 257.475702 159.883868 
L 260.755041 159.883868 
L 264.03438 174.989563 
L 267.313719 195.13049 
L 270.593058 190.095258 
L 273.872397 196.808901 
L 277.151736 143.099762 
L 280.431074 149.813404 
L 283.710413 154.848636 
L 286.989752 153.170225 
L 290.269091 143.099762 
L 293.54843 126.315656 
L 296.827769 151.491815 
L 300.107107 158.205457 
L 303.386446 153.170225 
L 306.665785 158.205457 
L 309.945124 149.813404 
L 313.224463 144.778172 
L 316.503802 146.456583 
L 319.78314 146.456583 
L 323.062479 171.632742 
L 326.341818 173.311152 
L 329.621157 173.311152 
L 332.900496 198.487311 
L 336.179835 203.522543 
L 339.459174 201.844132 
L 342.738512 176.667974 
L 346.017851 185.060026 
L 349.29719 173.311152 
L 352.576529 178.346384 
L 355.855868 168.275921 
L 359.135207 169.954331 
L 362.414545 171.632742 
L 365.693884 183.381616 
L 368.973223 178.346384 
L 372.252562 180.024795 
L 375.531901 180.024795 
L 378.81124 188.416848 
L 382.090579 185.060026 
L 385.369917 178.346384 
L 388.649256 178.346384 
L 391.928595 171.632742 
L 395.207934 181.703205 
L 398.487273 193.452079 
L 398.487273 193.452079 
L 398.487273 193.452079 
L 395.207934 181.703205 
L 391.928595 171.632742 
L 388.649256 178.346384 
L 385.369917 178.346384 
L 382.090579 185.060026 
L 378.81124 188.416848 
L 375.531901 180.024795 
L 372.252562 180.024795 
L 368.973223 178.346384 
L 365.693884 183.381616 
L 362.414545 171.632742 
L 359.135207 169.954331 
L 355.855868 168.275921 
L 352.576529 178.346384 
L 349.29719 173.311152 
L 346.017851 185.060026 
L 342.738512 176.667974 
L 339.459174 201.844132 
L 336.179835 203.522543 
L 332.900496 198.487311 
L 329.621157 173.311152 
L 326.341818 173.311152 
L 323.062479 171.632742 
L 319.78314 146.456583 
L 316.503802 146.456583 
L 313.224463 144.778172 
L 309.945124 149.813404 
L 306.665785 158.205457 
L 303.386446 153.170225 
L 300.107107 158.205457 
L 296.827769 151.491815 
L 293.54843 126.315656 
L 290.269091 143.099762 
L 286.989752 153.170225 
L 283.710413 154.848636 
L 280.431074 149.813404 
L 277.151736 143.099762 
L 273.872397 149.813404 
L 270.593058 134.707709 
L 267.313719 138.06453 
L 264.03438 109.53155 
L 260.755041 109.53155 
L 257.475702 106.174728 
L 254.196364 101.139497 
L 250.917025 94.425854 
L 247.637686 82.67698 
L 244.358347 87.712212 
L 241.079008 84.355391 
L 237.799669 65.892874 
L 234.520331 62.536053 
L 231.240992 55.822411 
L 227.961653 57.500821 
L 224.682314 57.500821 
L 221.402975 57.500821 
L 218.123636 57.500821 
L 214.844298 55.822411 
L 211.564959 57.500821 
L 208.28562 55.822411 
L 205.006281 57.500821 
L 201.726942 55.822411 
L 198.447603 55.822411 
L 195.168264 55.822411 
L 191.888926 55.822411 
L 188.609587 55.822411 
L 185.330248 55.822411 
L 182.050909 55.822411 
L 178.77157 57.500821 
L 175.492231 55.822411 
L 172.212893 55.822411 
L 168.933554 54.144 
L 165.654215 55.822411 
L 162.374876 54.144 
L 159.095537 54.144 
L 155.816198 54.144 
L 152.53686 55.822411 
L 149.257521 55.822411 
L 145.978182 55.822411 
L 142.698843 54.144 
L 139.419504 54.144 
L 136.140165 54.144 
L 132.860826 55.822411 
L 129.581488 54.144 
L 126.302149 54.144 
L 123.02281 54.144 
L 119.743471 54.144 
L 116.464132 55.822411 
L 113.184793 57.500821 
L 109.905455 55.822411 
L 106.626116 57.500821 
L 103.346777 57.500821 
L 100.067438 57.500821 
L 96.788099 55.822411 
L 93.50876 55.822411 
L 90.229421 55.822411 
L 86.950083 55.822411 
L 83.670744 55.822411 
L 80.391405 55.822411 
L 77.112066 55.822411 
L 73.832727 55.822411 
z
" clip-path="url(#p5c1abc0748)" style="fill: #9467bd"/>
   </g>
   <g id="PolyCollection_6">
    <path d="M 73.832727 55.822411 
L 73.832727 55.822411 
L 77.112066 55.822411 
L 80.391405 55.822411 
L 83.670744 55.822411 
L 86.950083 55.822411 
L 90.229421 55.822411 
L 93.50876 55.822411 
L 96.788099 55.822411 
L 100.067438 57.500821 
L 103.346777 57.500821 
L 106.626116 57.500821 
L 109.905455 55.822411 
L 113.184793 57.500821 
L 116.464132 55.822411 
L 119.743471 54.144 
L 123.02281 54.144 
L 126.302149 54.144 
L 129.581488 54.144 
L 132.860826 55.822411 
L 136.140165 54.144 
L 139.419504 54.144 
L 142.698843 54.144 
L 145.978182 55.822411 
L 149.257521 55.822411 
L 152.53686 55.822411 
L 155.816198 54.144 
L 159.095537 54.144 
L 162.374876 54.144 
L 165.654215 55.822411 
L 168.933554 54.144 
L 172.212893 55.822411 
L 175.492231 55.822411 
L 178.77157 57.500821 
L 182.050909 55.822411 
L 185.330248 55.822411 
L 188.609587 55.822411 
L 191.888926 55.822411 
L 195.168264 55.822411 
L 198.447603 55.822411 
L 201.726942 55.822411 
L 205.006281 57.500821 
L 208.28562 55.822411 
L 211.564959 57.500821 
L 214.844298 55.822411 
L 218.123636 57.500821 
L 221.402975 57.500821 
L 224.682314 57.500821 
L 227.961653 57.500821 
L 231.240992 55.822411 
L 234.520331 62.536053 
L 237.799669 65.892874 
L 241.079008 84.355391 
L 244.358347 87.712212 
L 247.637686 82.67698 
L 250.917025 94.425854 
L 254.196364 101.139497 
L 257.475702 106.174728 
L 260.755041 109.53155 
L 264.03438 109.53155 
L 267.313719 138.06453 
L 270.593058 134.707709 
L 273.872397 149.813404 
L 277.151736 143.099762 
L 280.431074 149.813404 
L 283.710413 154.848636 
L 286.989752 153.170225 
L 290.269091 143.099762 
L 293.54843 126.315656 
L 296.827769 151.491815 
L 300.107107 158.205457 
L 303.386446 153.170225 
L 306.665785 158.205457 
L 309.945124 149.813404 
L 313.224463 144.778172 
L 316.503802 146.456583 
L 319.78314 146.456583 
L 323.062479 171.632742 
L 326.341818 173.311152 
L 329.621157 173.311152 
L 332.900496 198.487311 
L 336.179835 203.522543 
L 339.459174 201.844132 
L 342.738512 176.667974 
L 346.017851 185.060026 
L 349.29719 173.311152 
L 352.576529 178.346384 
L 355.855868 168.275921 
L 359.135207 169.954331 
L 362.414545 171.632742 
L 365.693884 183.381616 
L 368.973223 178.346384 
L 372.252562 180.024795 
L 375.531901 180.024795 
L 378.81124 188.416848 
L 382.090579 185.060026 
L 385.369917 178.346384 
L 388.649256 178.346384 
L 391.928595 171.632742 
L 395.207934 181.703205 
L 398.487273 193.452079 
L 398.487273 129.672477 
L 398.487273 129.672477 
L 395.207934 136.386119 
L 391.928595 116.245192 
L 388.649256 119.602013 
L 385.369917 111.20996 
L 382.090579 106.174728 
L 378.81124 92.747444 
L 375.531901 109.53155 
L 372.252562 117.923603 
L 368.973223 121.280424 
L 365.693884 121.280424 
L 362.414545 119.602013 
L 359.135207 121.280424 
L 355.855868 124.637245 
L 352.576529 134.707709 
L 349.29719 114.566781 
L 346.017851 156.527046 
L 342.738512 104.496318 
L 339.459174 107.853139 
L 336.179835 106.174728 
L 332.900496 112.888371 
L 329.621157 134.707709 
L 326.341818 126.315656 
L 323.062479 124.637245 
L 319.78314 99.461086 
L 316.503802 102.817907 
L 313.224463 106.174728 
L 309.945124 99.461086 
L 306.665785 107.853139 
L 303.386446 104.496318 
L 300.107107 111.20996 
L 296.827769 102.817907 
L 293.54843 80.99857 
L 290.269091 96.104265 
L 286.989752 107.853139 
L 283.710413 107.853139 
L 280.431074 107.853139 
L 277.151736 104.496318 
L 273.872397 111.20996 
L 270.593058 92.747444 
L 267.313719 94.425854 
L 264.03438 70.928106 
L 260.755041 65.892874 
L 257.475702 57.500821 
L 254.196364 54.144 
L 250.917025 55.822411 
L 247.637686 57.500821 
L 244.358347 57.500821 
L 241.079008 57.500821 
L 237.799669 59.179232 
L 234.520331 55.822411 
L 231.240992 55.822411 
L 227.961653 57.500821 
L 224.682314 57.500821 
L 221.402975 57.500821 
L 218.123636 57.500821 
L 214.844298 55.822411 
L 211.564959 57.500821 
L 208.28562 55.822411 
L 205.006281 57.500821 
L 201.726942 55.822411 
L 198.447603 55.822411 
L 195.168264 55.822411 
L 191.888926 55.822411 
L 188.609587 55.822411 
L 185.330248 55.822411 
L 182.050909 55.822411 
L 178.77157 57.500821 
L 175.492231 55.822411 
L 172.212893 55.822411 
L 168.933554 54.144 
L 165.654215 55.822411 
L 162.374876 54.144 
L 159.095537 54.144 
L 155.816198 54.144 
L 152.53686 55.822411 
L 149.257521 55.822411 
L 145.978182 55.822411 
L 142.698843 54.144 
L 139.419504 54.144 
L 136.140165 54.144 
L 132.860826 55.822411 
L 129.581488 54.144 
L 126.302149 54.144 
L 123.02281 54.144 
L 119.743471 54.144 
L 116.464132 55.822411 
L 113.184793 57.500821 
L 109.905455 55.822411 
L 106.626116 57.500821 
L 103.346777 57.500821 
L 100.067438 57.500821 
L 96.788099 55.822411 
L 93.50876 55.822411 
L 90.229421 55.822411 
L 86.950083 55.822411 
L 83.670744 55.822411 
L 80.391405 55.822411 
L 77.112066 55.822411 
L 73.832727 55.822411 
z
" clip-path="url(#p5c1abc0748)" style="fill: #8c564b"/>
   </g>
   <g id="PolyCollection_7">
    <path d="M 73.832727 55.822411 
L 73.832727 55.822411 
L 77.112066 55.822411 
L 80.391405 55.822411 
L 83.670744 55.822411 
L 86.950083 55.822411 
L 90.229421 55.822411 
L 93.50876 55.822411 
L 96.788099 55.822411 
L 100.067438 57.500821 
L 103.346777 57.500821 
L 106.626116 57.500821 
L 109.905455 55.822411 
L 113.184793 57.500821 
L 116.464132 55.822411 
L 119.743471 54.144 
L 123.02281 54.144 
L 126.302149 54.144 
L 129.581488 54.144 
L 132.860826 55.822411 
L 136.140165 54.144 
L 139.419504 54.144 
L 142.698843 54.144 
L 145.978182 55.822411 
L 149.257521 55.822411 
L 152.53686 55.822411 
L 155.816198 54.144 
L 159.095537 54.144 
L 162.374876 54.144 
L 165.654215 55.822411 
L 168.933554 54.144 
L 172.212893 55.822411 
L 175.492231 55.822411 
L 178.77157 57.500821 
L 182.050909 55.822411 
L 185.330248 55.822411 
L 188.609587 55.822411 
L 191.888926 55.822411 
L 195.168264 55.822411 
L 198.447603 55.822411 
L 201.726942 55.822411 
L 205.006281 57.500821 
L 208.28562 55.822411 
L 211.564959 57.500821 
L 214.844298 55.822411 
L 218.123636 57.500821 
L 221.402975 57.500821 
L 224.682314 57.500821 
L 227.961653 57.500821 
L 231.240992 55.822411 
L 234.520331 55.822411 
L 237.799669 59.179232 
L 241.079008 57.500821 
L 244.358347 57.500821 
L 247.637686 57.500821 
L 250.917025 55.822411 
L 254.196364 54.144 
L 257.475702 57.500821 
L 260.755041 65.892874 
L 264.03438 70.928106 
L 267.313719 94.425854 
L 270.593058 92.747444 
L 273.872397 111.20996 
L 277.151736 104.496318 
L 280.431074 107.853139 
L 283.710413 107.853139 
L 286.989752 107.853139 
L 290.269091 96.104265 
L 293.54843 80.99857 
L 296.827769 102.817907 
L 300.107107 111.20996 
L 303.386446 104.496318 
L 306.665785 107.853139 
L 309.945124 99.461086 
L 313.224463 106.174728 
L 316.503802 102.817907 
L 319.78314 99.461086 
L 323.062479 124.637245 
L 326.341818 126.315656 
L 329.621157 134.707709 
L 332.900496 112.888371 
L 336.179835 106.174728 
L 339.459174 107.853139 
L 342.738512 104.496318 
L 346.017851 156.527046 
L 349.29719 114.566781 
L 352.576529 134.707709 
L 355.855868 124.637245 
L 359.135207 121.280424 
L 362.414545 119.602013 
L 365.693884 121.280424 
L 368.973223 121.280424 
L 372.252562 117.923603 
L 375.531901 109.53155 
L 378.81124 92.747444 
L 382.090579 106.174728 
L 385.369917 111.20996 
L 388.649256 119.602013 
L 391.928595 116.245192 
L 395.207934 136.386119 
L 398.487273 129.672477 
L 398.487273 54.144 
L 398.487273 54.144 
L 395.207934 54.144 
L 391.928595 55.822411 
L 388.649256 57.500821 
L 385.369917 55.822411 
L 382.090579 54.144 
L 378.81124 54.144 
L 375.531901 55.822411 
L 372.252562 54.144 
L 368.973223 55.822411 
L 365.693884 57.500821 
L 362.414545 55.822411 
L 359.135207 57.500821 
L 355.855868 57.500821 
L 352.576529 55.822411 
L 349.29719 55.822411 
L 346.017851 55.822411 
L 342.738512 55.822411 
L 339.459174 57.500821 
L 336.179835 57.500821 
L 332.900496 57.500821 
L 329.621157 54.144 
L 326.341818 55.822411 
L 323.062479 54.144 
L 319.78314 54.144 
L 316.503802 54.144 
L 313.224463 57.500821 
L 309.945124 55.822411 
L 306.665785 55.822411 
L 303.386446 55.822411 
L 300.107107 55.822411 
L 296.827769 55.822411 
L 293.54843 57.500821 
L 290.269091 55.822411 
L 286.989752 57.500821 
L 283.710413 54.144 
L 280.431074 57.500821 
L 277.151736 57.500821 
L 273.872397 57.500821 
L 270.593058 55.822411 
L 267.313719 55.822411 
L 264.03438 57.500821 
L 260.755041 55.822411 
L 257.475702 55.822411 
L 254.196364 54.144 
L 250.917025 55.822411 
L 247.637686 57.500821 
L 244.358347 57.500821 
L 241.079008 57.500821 
L 237.799669 59.179232 
L 234.520331 55.822411 
L 231.240992 55.822411 
L 227.961653 57.500821 
L 224.682314 57.500821 
L 221.402975 57.500821 
L 218.123636 57.500821 
L 214.844298 55.822411 
L 211.564959 57.500821 
L 208.28562 55.822411 
L 205.006281 57.500821 
L 201.726942 55.822411 
L 198.447603 55.822411 
L 195.168264 55.822411 
L 191.888926 55.822411 
L 188.609587 55.822411 
L 185.330248 55.822411 
L 182.050909 55.822411 
L 178.77157 57.500821 
L 175.492231 55.822411 
L 172.212893 55.822411 
L 168.933554 54.144 
L 165.654215 55.822411 
L 162.374876 54.144 
L 159.095537 54.144 
L 155.816198 54.144 
L 152.53686 55.822411 
L 149.257521 55.822411 
L 145.978182 55.822411 
L 142.698843 54.144 
L 139.419504 54.144 
L 136.140165 54.144 
L 132.860826 55.822411 
L 129.581488 54.144 
L 126.302149 54.144 
L 123.02281 54.144 
L 119.743471 54.144 
L 116.464132 55.822411 
L 113.184793 57.500821 
L 109.905455 55.822411 
L 106.626116 57.500821 
L 103.346777 57.500821 
L 100.067438 57.500821 
L 96.788099 55.822411 
L 93.50876 55.822411 
L 90.229421 55.822411 
L 86.950083 55.822411 
L 83.670744 55.822411 
L 80.391405 55.822411 
L 77.112066 55.822411 
L 73.832727 55.822411 
z
" clip-path="url(#p5c1abc0748)" style="fill: #e377c2"/>
   </g>
   <g id="matplotlib.axis_1">
    <g id="xtick_1">
     <g id="line2d_1">
      <defs>
       <path id="m2d16688891" d="M 0 0 
L 0 3.5 
" style="stroke: #000000; stroke-width: 0.8"/>
      </defs>
      <g>
       <use xlink:href="#m2d16688891" x="73.832727" y="307.584" style="stroke: #000000; stroke-width: 0.8"/>
      </g>
     </g>
     <g id="text_1">
      <!-- 0 -->
      <g transform="translate(70.651477 322.182437) scale(0.1 -0.1)">
       <defs>
        <path id="DejaVuSans-30" d="M 2034 4250 
Q 1547 4250 1301 3770 
Q 1056 3291 1056 2328 
Q 1056 1369 1301 889 
Q 1547 409 2034 409 
Q 2525 409 2770 889 
Q 3016 1369 3016 2328 
Q 3016 3291 2770 3770 
Q 2525 4250 2034 4250 
z
M 2034 4750 
Q 2819 4750 3233 4129 
Q 3647 3509 3647 2328 
Q 3647 1150 3233 529 
Q 2819 -91 2034 -91 
Q 1250 -91 836 529 
Q 422 1150 422 2328 
Q 422 3509 836 4129 
Q 1250 4750 2034 4750 
z
" transform="scale(0.015625)"/>
       </defs>
       <use xlink:href="#DejaVuSans-30"/>
      </g>
     </g>
    </g>
    <g id="xtick_2">
     <g id="line2d_2">
      <g>
       <use xlink:href="#m2d16688891" x="139.419504" y="307.584" style="stroke: #000000; stroke-width: 0.8"/>
      </g>
     </g>
     <g id="text_2">
      <!-- 20 -->
      <g transform="translate(133.057004 322.182437) scale(0.1 -0.1)">
       <defs>
        <path id="DejaVuSans-32" d="M 1228 531 
L 3431 531 
L 3431 0 
L 469 0 
L 469 531 
Q 828 903 1448 1529 
Q 2069 2156 2228 2338 
Q 2531 2678 2651 2914 
Q 2772 3150 2772 3378 
Q 2772 3750 2511 3984 
Q 2250 4219 1831 4219 
Q 1534 4219 1204 4116 
Q 875 4013 500 3803 
L 500 4441 
Q 881 4594 1212 4672 
Q 1544 4750 1819 4750 
Q 2544 4750 2975 4387 
Q 3406 4025 3406 3419 
Q 3406 3131 3298 2873 
Q 3191 2616 2906 2266 
Q 2828 2175 2409 1742 
Q 1991 1309 1228 531 
z
" transform="scale(0.015625)"/>
       </defs>
       <use xlink:href="#DejaVuSans-32"/>
       <use xlink:href="#DejaVuSans-30" x="63.623047"/>
      </g>
     </g>
    </g>
    <g id="xtick_3">
     <g id="line2d_3">
      <g>
       <use xlink:href="#m2d16688891" x="205.006281" y="307.584" style="stroke: #000000; stroke-width: 0.8"/>
      </g>
     </g>
     <g id="text_3">
      <!-- 40 -->
      <g transform="translate(198.643781 322.182437) scale(0.1 -0.1)">
       <defs>
        <path id="DejaVuSans-34" d="M 2419 4116 
L 825 1625 
L 2419 1625 
L 2419 4116 
z
M 2253 4666 
L 3047 4666 
L 3047 1625 
L 3713 1625 
L 3713 1100 
L 3047 1100 
L 3047 0 
L 2419 0 
L 2419 1100 
L 313 1100 
L 313 1709 
L 2253 4666 
z
" transform="scale(0.015625)"/>
       </defs>
       <use xlink:href="#DejaVuSans-34"/>
       <use xlink:href="#DejaVuSans-30" x="63.623047"/>
      </g>
     </g>
    </g>
    <g id="xtick_4">
     <g id="line2d_4">
      <g>
       <use xlink:href="#m2d16688891" x="270.593058" y="307.584" style="stroke: #000000; stroke-width: 0.8"/>
      </g>
     </g>
     <g id="text_4">
      <!-- 60 -->
      <g transform="translate(264.230558 322.182437) scale(0.1 -0.1)">
       <defs>
        <path id="DejaVuSans-36" d="M 2113 2584 
Q 1688 2584 1439 2293 
Q 1191 2003 1191 1497 
Q 1191 994 1439 701 
Q 1688 409 2113 409 
Q 2538 409 2786 701 
Q 3034 994 3034 1497 
Q 3034 2003 2786 2293 
Q 2538 2584 2113 2584 
z
M 3366 4563 
L 3366 3988 
Q 3128 4100 2886 4159 
Q 2644 4219 2406 4219 
Q 1781 4219 1451 3797 
Q 1122 3375 1075 2522 
Q 1259 2794 1537 2939 
Q 1816 3084 2150 3084 
Q 2853 3084 3261 2657 
Q 3669 2231 3669 1497 
Q 3669 778 3244 343 
Q 2819 -91 2113 -91 
Q 1303 -91 875 529 
Q 447 1150 447 2328 
Q 447 3434 972 4092 
Q 1497 4750 2381 4750 
Q 2619 4750 2861 4703 
Q 3103 4656 3366 4563 
z
" transform="scale(0.015625)"/>
       </defs>
       <use xlink:href="#DejaVuSans-36"/>
       <use xlink:href="#DejaVuSans-30" x="63.623047"/>
      </g>
     </g>
    </g>
    <g id="xtick_5">
     <g id="line2d_5">
      <g>
       <use xlink:href="#m2d16688891" x="336.179835" y="307.584" style="stroke: #000000; stroke-width: 0.8"/>
      </g>
     </g>
     <g id="text_5">
      <!-- 80 -->
      <g transform="translate(329.817335 322.182437) scale(0.1 -0.1)">
       <defs>
        <path id="DejaVuSans-38" d="M 2034 2216 
Q 1584 2216 1326 1975 
Q 1069 1734 1069 1313 
Q 1069 891 1326 650 
Q 1584 409 2034 409 
Q 2484 409 2743 651 
Q 3003 894 3003 1313 
Q 3003 1734 2745 1975 
Q 2488 2216 2034 2216 
z
M 1403 2484 
Q 997 2584 770 2862 
Q 544 3141 544 3541 
Q 544 4100 942 4425 
Q 1341 4750 2034 4750 
Q 2731 4750 3128 4425 
Q 3525 4100 3525 3541 
Q 3525 3141 3298 2862 
Q 3072 2584 2669 2484 
Q 3125 2378 3379 2068 
Q 3634 1759 3634 1313 
Q 3634 634 3220 271 
Q 2806 -91 2034 -91 
Q 1263 -91 848 271 
Q 434 634 434 1313 
Q 434 1759 690 2068 
Q 947 2378 1403 2484 
z
M 1172 3481 
Q 1172 3119 1398 2916 
Q 1625 2713 2034 2713 
Q 2441 2713 2670 2916 
Q 2900 3119 2900 3481 
Q 2900 3844 2670 4047 
Q 2441 4250 2034 4250 
Q 1625 4250 1398 4047 
Q 1172 3844 1172 3481 
z
" transform="scale(0.015625)"/>
       </defs>
       <use xlink:href="#DejaVuSans-38"/>
       <use xlink:href="#DejaVuSans-30" x="63.623047"/>
      </g>
     </g>
    </g>
    <g id="xtick_6">
     <g id="line2d_6">
      <g>
       <use xlink:href="#m2d16688891" x="401.766612" y="307.584" style="stroke: #000000; stroke-width: 0.8"/>
      </g>
     </g>
     <g id="text_6">
      <!-- 100 -->
      <g transform="translate(392.222862 322.182437) scale(0.1 -0.1)">
       <defs>
        <path id="DejaVuSans-31" d="M 794 531 
L 1825 531 
L 1825 4091 
L 703 3866 
L 703 4441 
L 1819 4666 
L 2450 4666 
L 2450 531 
L 3481 531 
L 3481 0 
L 794 0 
L 794 531 
z
" transform="scale(0.015625)"/>
       </defs>
       <use xlink:href="#DejaVuSans-31"/>
       <use xlink:href="#DejaVuSans-30" x="63.623047"/>
       <use xlink:href="#DejaVuSans-30" x="127.246094"/>
      </g>
     </g>
    </g>
    <g id="text_7">
     <!-- Generations -->
     <g transform="translate(205.662344 335.860562) scale(0.1 -0.1)">
      <defs>
       <path id="DejaVuSans-47" d="M 3809 666 
L 3809 1919 
L 2778 1919 
L 2778 2438 
L 4434 2438 
L 4434 434 
Q 4069 175 3628 42 
Q 3188 -91 2688 -91 
Q 1594 -91 976 548 
Q 359 1188 359 2328 
Q 359 3472 976 4111 
Q 1594 4750 2688 4750 
Q 3144 4750 3555 4637 
Q 3966 4525 4313 4306 
L 4313 3634 
Q 3963 3931 3569 4081 
Q 3175 4231 2741 4231 
Q 1884 4231 1454 3753 
Q 1025 3275 1025 2328 
Q 1025 1384 1454 906 
Q 1884 428 2741 428 
Q 3075 428 3337 486 
Q 3600 544 3809 666 
z
" transform="scale(0.015625)"/>
       <path id="DejaVuSans-65" d="M 3597 1894 
L 3597 1613 
L 953 1613 
Q 991 1019 1311 708 
Q 1631 397 2203 397 
Q 2534 397 2845 478 
Q 3156 559 3463 722 
L 3463 178 
Q 3153 47 2828 -22 
Q 2503 -91 2169 -91 
Q 1331 -91 842 396 
Q 353 884 353 1716 
Q 353 2575 817 3079 
Q 1281 3584 2069 3584 
Q 2775 3584 3186 3129 
Q 3597 2675 3597 1894 
z
M 3022 2063 
Q 3016 2534 2758 2815 
Q 2500 3097 2075 3097 
Q 1594 3097 1305 2825 
Q 1016 2553 972 2059 
L 3022 2063 
z
" transform="scale(0.015625)"/>
       <path id="DejaVuSans-6e" d="M 3513 2113 
L 3513 0 
L 2938 0 
L 2938 2094 
Q 2938 2591 2744 2837 
Q 2550 3084 2163 3084 
Q 1697 3084 1428 2787 
Q 1159 2491 1159 1978 
L 1159 0 
L 581 0 
L 581 3500 
L 1159 3500 
L 1159 2956 
Q 1366 3272 1645 3428 
Q 1925 3584 2291 3584 
Q 2894 3584 3203 3211 
Q 3513 2838 3513 2113 
z
" transform="scale(0.015625)"/>
       <path id="DejaVuSans-72" d="M 2631 2963 
Q 2534 3019 2420 3045 
Q 2306 3072 2169 3072 
Q 1681 3072 1420 2755 
Q 1159 2438 1159 1844 
L 1159 0 
L 581 0 
L 581 3500 
L 1159 3500 
L 1159 2956 
Q 1341 3275 1631 3429 
Q 1922 3584 2338 3584 
Q 2397 3584 2469 3576 
Q 2541 3569 2628 3553 
L 2631 2963 
z
" transform="scale(0.015625)"/>
       <path id="DejaVuSans-61" d="M 2194 1759 
Q 1497 1759 1228 1600 
Q 959 1441 959 1056 
Q 959 750 1161 570 
Q 1363 391 1709 391 
Q 2188 391 2477 730 
Q 2766 1069 2766 1631 
L 2766 1759 
L 2194 1759 
z
M 3341 1997 
L 3341 0 
L 2766 0 
L 2766 531 
Q 2569 213 2275 61 
Q 1981 -91 1556 -91 
Q 1019 -91 701 211 
Q 384 513 384 1019 
Q 384 1609 779 1909 
Q 1175 2209 1959 2209 
L 2766 2209 
L 2766 2266 
Q 2766 2663 2505 2880 
Q 2244 3097 1772 3097 
Q 1472 3097 1187 3025 
Q 903 2953 641 2809 
L 641 3341 
Q 956 3463 1253 3523 
Q 1550 3584 1831 3584 
Q 2591 3584 2966 3190 
Q 3341 2797 3341 1997 
z
" transform="scale(0.015625)"/>
       <path id="DejaVuSans-74" d="M 1172 4494 
L 1172 3500 
L 2356 3500 
L 2356 3053 
L 1172 3053 
L 1172 1153 
Q 1172 725 1289 603 
Q 1406 481 1766 481 
L 2356 481 
L 2356 0 
L 1766 0 
Q 1100 0 847 248 
Q 594 497 594 1153 
L 594 3053 
L 172 3053 
L 172 3500 
L 594 3500 
L 594 4494 
L 1172 4494 
z
" transform="scale(0.015625)"/>
       <path id="DejaVuSans-69" d="M 603 3500 
L 1178 3500 
L 1178 0 
L 603 0 
L 603 3500 
z
M 603 4863 
L 1178 4863 
L 1178 4134 
L 603 4134 
L 603 4863 
z
" transform="scale(0.015625)"/>
       <path id="DejaVuSans-6f" d="M 1959 3097 
Q 1497 3097 1228 2736 
Q 959 2375 959 1747 
Q 959 1119 1226 758 
Q 1494 397 1959 397 
Q 2419 397 2687 759 
Q 2956 1122 2956 1747 
Q 2956 2369 2687 2733 
Q 2419 3097 1959 3097 
z
M 1959 3584 
Q 2709 3584 3137 3096 
Q 3566 2609 3566 1747 
Q 3566 888 3137 398 
Q 2709 -91 1959 -91 
Q 1206 -91 779 398 
Q 353 888 353 1747 
Q 353 2609 779 3096 
Q 1206 3584 1959 3584 
z
" transform="scale(0.015625)"/>
       <path id="DejaVuSans-73" d="M 2834 3397 
L 2834 2853 
Q 2591 2978 2328 3040 
Q 2066 3103 1784 3103 
Q 1356 3103 1142 2972 
Q 928 2841 928 2578 
Q 928 2378 1081 2264 
Q 1234 2150 1697 2047 
L 1894 2003 
Q 2506 1872 2764 1633 
Q 3022 1394 3022 966 
Q 3022 478 2636 193 
Q 2250 -91 1575 -91 
Q 1294 -91 989 -36 
Q 684 19 347 128 
L 347 722 
Q 666 556 975 473 
Q 1284 391 1588 391 
Q 1994 391 2212 530 
Q 2431 669 2431 922 
Q 2431 1156 2273 1281 
Q 2116 1406 1581 1522 
L 1381 1569 
Q 847 1681 609 1914 
Q 372 2147 372 2553 
Q 372 3047 722 3315 
Q 1072 3584 1716 3584 
Q 2034 3584 2315 3537 
Q 2597 3491 2834 3397 
z
" transform="scale(0.015625)"/>
      </defs>
      <use xlink:href="#DejaVuSans-47"/>
      <use xlink:href="#DejaVuSans-65" x="77.490234"/>
      <use xlink:href="#DejaVuSans-6e" x="139.013672"/>
      <use xlink:href="#DejaVuSans-65" x="202.392578"/>
      <use xlink:href="#DejaVuSans-72" x="263.916016"/>
      <use xlink:href="#DejaVuSans-61" x="305.029297"/>
      <use xlink:href="#DejaVuSans-74" x="366.308594"/>
      <use xlink:href="#DejaVuSans-69" x="405.517578"/>
      <use xlink:href="#DejaVuSans-6f" x="433.300781"/>
      <use xlink:href="#DejaVuSans-6e" x="494.482422"/>
      <use xlink:href="#DejaVuSans-73" x="557.861328"/>
     </g>
    </g>
   </g>
   <g id="matplotlib.axis_2">
    <g id="ytick_1">
     <g id="line2d_7">
      <defs>
       <path id="mdd77cb3ddd" d="M 0 0 
L -3.5 0 
" style="stroke: #000000; stroke-width: 0.8"/>
      </defs>
      <g>
       <use xlink:href="#mdd77cb3ddd" x="57.6" y="307.584" style="stroke: #000000; stroke-width: 0.8"/>
      </g>
     </g>
     <g id="text_8">
      <!-- 0 -->
      <g transform="translate(44.2375 311.383219) scale(0.1 -0.1)">
       <use xlink:href="#DejaVuSans-30"/>
      </g>
     </g>
    </g>
    <g id="ytick_2">
     <g id="line2d_8">
      <g>
       <use xlink:href="#mdd77cb3ddd" x="57.6" y="274.015788" style="stroke: #000000; stroke-width: 0.8"/>
      </g>
     </g>
     <g id="text_9">
      <!-- 20 -->
      <g transform="translate(37.875 277.815007) scale(0.1 -0.1)">
       <use xlink:href="#DejaVuSans-32"/>
       <use xlink:href="#DejaVuSans-30" x="63.623047"/>
      </g>
     </g>
    </g>
    <g id="ytick_3">
     <g id="line2d_9">
      <g>
       <use xlink:href="#mdd77cb3ddd" x="57.6" y="240.447576" style="stroke: #000000; stroke-width: 0.8"/>
      </g>
     </g>
     <g id="text_10">
      <!-- 40 -->
      <g transform="translate(37.875 244.246795) scale(0.1 -0.1)">
       <use xlink:href="#DejaVuSans-34"/>
       <use xlink:href="#DejaVuSans-30" x="63.623047"/>
      </g>
     </g>
    </g>
    <g id="ytick_4">
     <g id="line2d_10">
      <g>
       <use xlink:href="#mdd77cb3ddd" x="57.6" y="206.879364" style="stroke: #000000; stroke-width: 0.8"/>
      </g>
     </g>
     <g id="text_11">
      <!-- 60 -->
      <g transform="translate(37.875 210.678583) scale(0.1 -0.1)">
       <use xlink:href="#DejaVuSans-36"/>
       <use xlink:href="#DejaVuSans-30" x="63.623047"/>
      </g>
     </g>
    </g>
    <g id="ytick_5">
     <g id="line2d_11">
      <g>
       <use xlink:href="#mdd77cb3ddd" x="57.6" y="173.311152" style="stroke: #000000; stroke-width: 0.8"/>
      </g>
     </g>
     <g id="text_12">
      <!-- 80 -->
      <g transform="translate(37.875 177.110371) scale(0.1 -0.1)">
       <use xlink:href="#DejaVuSans-38"/>
       <use xlink:href="#DejaVuSans-30" x="63.623047"/>
      </g>
     </g>
    </g>
    <g id="ytick_6">
     <g id="line2d_12">
      <g>
       <use xlink:href="#mdd77cb3ddd" x="57.6" y="139.74294" style="stroke: #000000; stroke-width: 0.8"/>
      </g>
     </g>
     <g id="text_13">
      <!-- 100 -->
      <g transform="translate(31.5125 143.542159) scale(0.1 -0.1)">
       <use xlink:href="#DejaVuSans-31"/>
       <use xlink:href="#DejaVuSans-30" x="63.623047"/>
       <use xlink:href="#DejaVuSans-30" x="127.246094"/>
      </g>
     </g>
    </g>
    <g id="ytick_7">
     <g id="line2d_13">
      <g>
       <use xlink:href="#mdd77cb3ddd" x="57.6" y="106.174728" style="stroke: #000000; stroke-width: 0.8"/>
      </g>
     </g>
     <g id="text_14">
      <!-- 120 -->
      <g transform="translate(31.5125 109.973947) scale(0.1 -0.1)">
       <use xlink:href="#DejaVuSans-31"/>
       <use xlink:href="#DejaVuSans-32" x="63.623047"/>
       <use xlink:href="#DejaVuSans-30" x="127.246094"/>
      </g>
     </g>
    </g>
    <g id="ytick_8">
     <g id="line2d_14">
      <g>
       <use xlink:href="#mdd77cb3ddd" x="57.6" y="72.606517" style="stroke: #000000; stroke-width: 0.8"/>
      </g>
     </g>
     <g id="text_15">
      <!-- 140 -->
      <g transform="translate(31.5125 76.405735) scale(0.1 -0.1)">
       <use xlink:href="#DejaVuSans-31"/>
       <use xlink:href="#DejaVuSans-34" x="63.623047"/>
       <use xlink:href="#DejaVuSans-30" x="127.246094"/>
      </g>
     </g>
    </g>
    <g id="text_16">
     <!-- Size per Species -->
     <g transform="translate(25.432812 215.520969) rotate(-90) scale(0.1 -0.1)">
      <defs>
       <path id="DejaVuSans-53" d="M 3425 4513 
L 3425 3897 
Q 3066 4069 2747 4153 
Q 2428 4238 2131 4238 
Q 1616 4238 1336 4038 
Q 1056 3838 1056 3469 
Q 1056 3159 1242 3001 
Q 1428 2844 1947 2747 
L 2328 2669 
Q 3034 2534 3370 2195 
Q 3706 1856 3706 1288 
Q 3706 609 3251 259 
Q 2797 -91 1919 -91 
Q 1588 -91 1214 -16 
Q 841 59 441 206 
L 441 856 
Q 825 641 1194 531 
Q 1563 422 1919 422 
Q 2459 422 2753 634 
Q 3047 847 3047 1241 
Q 3047 1584 2836 1778 
Q 2625 1972 2144 2069 
L 1759 2144 
Q 1053 2284 737 2584 
Q 422 2884 422 3419 
Q 422 4038 858 4394 
Q 1294 4750 2059 4750 
Q 2388 4750 2728 4690 
Q 3069 4631 3425 4513 
z
" transform="scale(0.015625)"/>
       <path id="DejaVuSans-7a" d="M 353 3500 
L 3084 3500 
L 3084 2975 
L 922 459 
L 3084 459 
L 3084 0 
L 275 0 
L 275 525 
L 2438 3041 
L 353 3041 
L 353 3500 
z
" transform="scale(0.015625)"/>
       <path id="DejaVuSans-20" transform="scale(0.015625)"/>
       <path id="DejaVuSans-70" d="M 1159 525 
L 1159 -1331 
L 581 -1331 
L 581 3500 
L 1159 3500 
L 1159 2969 
Q 1341 3281 1617 3432 
Q 1894 3584 2278 3584 
Q 2916 3584 3314 3078 
Q 3713 2572 3713 1747 
Q 3713 922 3314 415 
Q 2916 -91 2278 -91 
Q 1894 -91 1617 61 
Q 1341 213 1159 525 
z
M 3116 1747 
Q 3116 2381 2855 2742 
Q 2594 3103 2138 3103 
Q 1681 3103 1420 2742 
Q 1159 2381 1159 1747 
Q 1159 1113 1420 752 
Q 1681 391 2138 391 
Q 2594 391 2855 752 
Q 3116 1113 3116 1747 
z
" transform="scale(0.015625)"/>
       <path id="DejaVuSans-63" d="M 3122 3366 
L 3122 2828 
Q 2878 2963 2633 3030 
Q 2388 3097 2138 3097 
Q 1578 3097 1268 2742 
Q 959 2388 959 1747 
Q 959 1106 1268 751 
Q 1578 397 2138 397 
Q 2388 397 2633 464 
Q 2878 531 3122 666 
L 3122 134 
Q 2881 22 2623 -34 
Q 2366 -91 2075 -91 
Q 1284 -91 818 406 
Q 353 903 353 1747 
Q 353 2603 823 3093 
Q 1294 3584 2113 3584 
Q 2378 3584 2631 3529 
Q 2884 3475 3122 3366 
z
" transform="scale(0.015625)"/>
      </defs>
      <use xlink:href="#DejaVuSans-53"/>
      <use xlink:href="#DejaVuSans-69" x="63.476562"/>
      <use xlink:href="#DejaVuSans-7a" x="91.259766"/>
      <use xlink:href="#DejaVuSans-65" x="143.75"/>
      <use xlink:href="#DejaVuSans-20" x="205.273438"/>
      <use xlink:href="#DejaVuSans-70" x="237.060547"/>
      <use xlink:href="#DejaVuSans-65" x="300.537109"/>
      <use xlink:href="#DejaVuSans-72" x="362.060547"/>
      <use xlink:href="#DejaVuSans-20" x="403.173828"/>
      <use xlink:href="#DejaVuSans-53" x="434.960938"/>
      <use xlink:href="#DejaVuSans-70" x="498.4375"/>
      <use xlink:href="#DejaVuSans-65" x="561.914062"/>
      <use xlink:href="#DejaVuSans-63" x="623.4375"/>
      <use xlink:href="#DejaVuSans-69" x="678.417969"/>
      <use xlink:href="#DejaVuSans-65" x="706.201172"/>
      <use xlink:href="#DejaVuSans-73" x="767.724609"/>
     </g>
    </g>
   </g>
   <g id="patch_3">
    <path d="M 57.6 307.584 
L 57.6 41.472 
" style="fill: none; stroke: #000000; stroke-width: 0.8; stroke-linejoin: miter; stroke-linecap: square"/>
   </g>
   <g id="patch_4">
    <path d="M 414.72 307.584 
L 414.72 41.472 
" style="fill: none; stroke: #000000; stroke-width: 0.8; stroke-linejoin: miter; stroke-linecap: square"/>
   </g>
   <g id="patch_5">
    <path d="M 57.6 307.584 
L 414.72 307.584 
" style="fill: none; stroke: #000000; stroke-width: 0.8; stroke-linejoin: miter; stroke-linecap: square"/>
   </g>
   <g id="patch_6">
    <path d="M 57.6 41.472 
L 414.72 41.472 
" style="fill: none; stroke: #000000; stroke-width: 0.8; stroke-linejoin: miter; stroke-linecap: square"/>
   </g>
   <g id="text_17">
    <!-- Speciation -->
    <g transform="translate(204.714375 35.472) scale(0.12 -0.12)">
     <use xlink:href="#DejaVuSans-53"/>
     <use xlink:href="#DejaVuSans-70" x="63.476562"/>
     <use xlink:href="#DejaVuSans-65" x="126.953125"/>
     <use xlink:href="#DejaVuSans-63" x="188.476562"/>
     <use xlink:href="#DejaVuSans-69" x="243.457031"/>
     <use xlink:href="#DejaVuSans-61" x="271.240234"/>
     <use xlink:href="#DejaVuSans-74" x="332.519531"/>
     <use xlink:href="#DejaVuSans-69" x="371.728516"/>
     <use xlink:href="#DejaVuSans-6f" x="399.511719"/>
     <use xlink:href="#DejaVuSans-6e" x="460.693359"/>
    </g>
   </g>
  </g>
 </g>
 <defs>
  <clipPath id="p5c1abc0748">
   <rect x="57.6" y="41.472" width="357.12" height="266.112"/>
  </clipPath>
 </defs>
</svg>
